<svg width="29" height="206" viewBox="0 0 29 206" fill="none" xmlns="http://www.w3.org/2000/svg">
<path d="M5.78125 0.703125C6.39062 0.796875 7.14062 1.40625 8.03125 2.53125L10.1406 2.32031C15.8125 2.32031 19.8906 5.60156 22.375 12.1641C22.9844 14.2266 23.2891 16.1016 23.2891 17.7891V18.4219L23.4297 18.6328L23.2891 18.9141V19.7578C23.2891 23.9297 21.8828 28.0781 19.0703 32.2031C23.6641 35.1094 25.9609 39.3047 25.9609 44.7891V46.3359C25.9609 52.1953 23.875 57.7266 19.7031 62.9297C17.875 64.7109 15.9531 65.6016 13.9375 65.6016L10.7031 64.9688H10.4922L9.71875 65.3906H8.875C7.60938 65.3906 6.78906 63.8906 6.41406 60.8906C5.24219 54.9375 4.65625 48.2344 4.65625 40.7812V36.7734L3.60156 34.3125V34.1719L4.65625 32.2031V26.1562C4.65625 16.4062 4.30469 8.53125 3.60156 2.53125C3.92969 1.3125 4.65625 0.703125 5.78125 0.703125ZM8.24219 6.67969C8.66406 13.1953 8.875 20.2734 8.875 27.9141V32.625H10.7031C14.3594 32.625 17.0781 29.2969 18.8594 22.6406L19.0703 19.9688V17.5078C19.0703 12.2109 16.9844 8.67188 12.8125 6.89062L10.1406 6.39844H9.29688L8.24219 6.67969ZM9.50781 36.7734H8.875V40.5703C8.875 53.6953 9.76562 60.2578 11.5469 60.2578C12.1094 61.0078 12.7656 61.3828 13.5156 61.3828H14.4297C17.2422 61.3828 19.6094 57.3281 21.5312 49.2188L21.7422 45.2109C21.7422 39.8672 19.9844 36.7734 16.4688 35.9297H14.5703L9.50781 36.7734Z" fill="#061EF2"/>
<path d="M26.8047 137.117C27.5078 137.117 28.1641 137.773 28.7734 139.086C26.1016 149.961 24.2266 161.398 23.1484 173.398C22.0703 185.398 20.5469 195.828 18.5781 204.688L17.2422 205.602C15.6016 205.086 14.7812 204.406 14.7812 203.562L18.9297 175.93C15.9766 172.273 13.7031 168.195 12.1094 163.695C10.0938 158.164 6.34375 150.992 0.859375 142.18L0.226562 140.492C0.226562 139.414 1.02344 138.734 2.61719 138.453C3.41406 138.594 4.60938 140.305 6.20312 143.586C9.39062 147.852 13.4453 155.82 18.3672 167.492L19.1406 169.391C22.0938 145.625 24.6484 134.867 26.8047 137.117Z" fill="#B506F2"/>
</svg>
