<svg width="462" height="125" viewBox="0 0 462 125" fill="none" xmlns="http://www.w3.org/2000/svg">
<path d="M97.6016 3.39205C92.9128 4.00564 84.8032 7.17968 77.7257 11.1718C64.2564 18.7623 53.8834 28.7086 47.956 39.7079C47.7054 40.1624 47.5063 40.5184 47.5063 40.5033C47.5063 40.4805 47.5579 40.2002 47.6169 39.8745C47.8381 38.6776 47.7349 38.0413 47.2704 37.6701C46.747 37.261 46.0908 37.4732 45.3683 38.2761C44.4837 39.2533 43.8275 40.4427 41.7264 44.8439C40.8343 46.7074 40.0971 48.2149 40.0824 48.2073C40.0676 48.1922 40.1413 47.7528 40.2445 47.2377C40.51 45.9423 40.5616 45.0711 40.4067 44.6545C40.3109 44.3969 40.2077 44.2833 39.9349 44.1318C39.6031 43.9424 39.5663 43.9349 39.2935 44.0333C38.8143 44.2076 38.5342 44.4878 37.9665 45.3742C37.185 46.6013 36.2487 48.3664 35.1945 50.6162C34.6858 51.6995 33.9707 53.2145 33.5947 53.9872C32.9606 55.2826 32.9164 55.3583 32.9533 55.0099C33.0196 54.3508 32.8795 53.6539 32.6068 53.3055C32.3782 53.0176 32.3487 53.0024 31.958 53.0024C31.2281 53.0024 30.8743 53.4039 30.0043 55.222C29.385 56.5174 28.9722 57.5097 27.8074 60.4641C27.2692 61.8352 26.7679 62.9563 26.2886 63.8729C25.2934 65.7743 24.7626 66.8727 24.5856 67.403C24.4382 67.8424 24.3202 67.9787 21.4303 70.9861C14.9499 77.7129 8.31481 85.061 8.49174 85.3034C8.77927 85.6973 9.47964 86.5609 9.5165 86.5609C9.59023 86.5609 10.6961 85.8942 11.3817 85.4397C12.0895 84.9701 12.1189 84.9549 14.1464 84.1216C24.4234 79.8795 33.9707 77.3948 39.9865 77.3948C42.1171 77.3948 44.4026 77.8039 45.5232 78.3871C46.1203 78.6977 46.4521 79.3341 47.0714 81.387C47.8823 84.0837 48.45 85.0231 49.6148 85.6064C50.6912 86.1442 52.0035 86.5078 53.6991 86.7275C54.687 86.8563 58.1889 86.8563 59.4864 86.7275C64.7503 86.2124 70.8989 84.8337 77.5856 82.6823C78.4998 82.3945 79.2665 82.1369 79.296 82.1218C79.3181 82.1066 79.2223 81.7127 79.0748 81.2582C78.861 80.5991 78.7799 80.4325 78.6915 80.4703C78.6325 80.4931 77.6814 80.7961 76.583 81.1445C64.5291 84.9701 54.746 86.0912 50.5806 84.114C49.6886 83.6898 49.4674 83.2959 48.7154 80.8264C48.1551 79.0007 47.7865 78.175 47.2409 77.5539C46.6143 76.8418 45.5895 76.3797 43.8349 76.0009C42.4636 75.7055 41.3062 75.6222 39.264 75.6752C36.2561 75.751 33.2334 76.2055 29.3039 77.1751C26.0159 77.9857 21.1796 79.5083 17.6851 80.8264C17.4049 80.94 17.169 81.0158 17.1617 81.0082C17.1469 81.0006 17.4271 80.7506 17.7809 80.4628C18.7762 79.6371 22.3002 76.5161 24.1359 74.8343C25.78 73.3193 25.7947 73.3117 26.1412 73.3041C26.8932 73.2966 27.5641 73.1072 29.4809 72.3572C29.7684 72.2436 30.8964 71.8876 31.9875 71.5618C34.1918 70.9104 34.8701 70.6604 35.2903 70.3801C35.9981 69.9029 36.057 69.0923 35.423 68.6226L35.1281 68.403L36.9122 67.6606C40.1413 66.3198 41.2693 65.8122 41.9549 65.4107C43.1419 64.7138 43.599 64.2214 43.599 63.6457C43.599 63.2366 43.3852 62.9033 42.9944 62.7064C42.729 62.5776 42.53 62.5473 41.896 62.5473H41.1292L41.4757 62.32C42.7364 61.5095 46.2014 59.6535 52.2984 56.5401C58.8893 53.1767 59.9656 52.4646 59.9656 51.5025C59.9656 50.389 59.0367 50.2223 56.4711 50.8814C55.9846 51.0026 55.5791 51.0935 55.5717 51.0859C55.5643 51.0783 56.3679 50.5556 57.3706 49.9345C63.8583 45.8817 70.98 41.1699 73.199 39.4579C74.2607 38.6397 75.4919 37.5035 79.3181 33.8067C79.9669 33.178 81.6404 31.5947 83.0338 30.2842C89.1307 24.5573 93.3404 20.2925 96.5031 16.6412C101.096 11.3385 103.035 7.7554 102.475 5.61917C102.327 5.04345 102.113 4.66469 101.73 4.30108C100.868 3.48295 99.4005 3.15721 97.6016 3.39205ZM99.9091 5.24799C100.705 5.47524 100.956 5.95248 100.772 6.90697C100.123 10.3689 93.7237 17.8835 82.3776 28.4965C80.5935 30.163 79.5393 31.163 77.4308 33.2007C74.5113 36.0187 73.0295 37.3747 72.1669 38.0413C69.0042 40.4805 56.0214 48.8739 50.4921 52.0555C49.46 52.6464 48.9439 53.0782 48.8628 53.4115C48.8112 53.6236 49.1356 54.3205 49.3126 54.3963C49.5411 54.4872 50.1972 54.4417 50.787 54.2978C51.1114 54.2145 52.1583 53.9266 53.1093 53.6539C54.0604 53.3736 54.9082 53.1312 54.9893 53.1085C55.0704 53.0933 52.6154 54.3811 49.5337 55.9795C42.5595 59.5929 41.1882 60.3504 39.6326 61.4261C38.4752 62.2367 38.1213 62.7367 38.2466 63.4033C38.2982 63.676 38.6595 64.0851 38.9544 64.1987C39.065 64.2441 39.3746 64.2972 39.6548 64.3275L40.1561 64.3881L39.205 64.782C38.6816 65.0017 37.4578 65.5168 36.4846 65.9183C33.5504 67.1455 32.7174 67.5924 32.3487 68.1454C32.1202 68.4863 32.1128 68.9787 32.3192 69.3347C32.4667 69.5695 32.4667 69.5847 32.3414 69.6226C32.2676 69.6453 31.6705 69.8195 31.007 70.0089C30.3435 70.1983 29.5251 70.4483 29.186 70.5771C28.8395 70.6983 28.5593 70.7816 28.5593 70.774C28.5593 70.7589 29.3482 70.0013 30.3066 69.0923C32.5478 66.9712 38.9249 60.858 42.8249 57.0931C54.2004 46.109 56.7955 43.6546 68.4439 32.8901C77.4603 24.5573 78.6767 23.4059 80.6525 21.3833C82.0828 19.9137 82.4661 19.4592 83.7931 17.7017C84.6262 16.5957 85.2824 15.6867 85.2602 15.6715C85.1423 15.6261 81.5003 17.2396 80.7557 17.6714C75.9268 20.497 65.4286 29.1707 52.0403 41.4047C42.729 49.9193 38.7848 53.6615 28.9796 63.2972L28.1023 64.1684L28.3971 63.5624C28.5593 63.2366 28.9943 62.1761 29.3703 61.2216C30.0338 59.5247 30.8669 57.4794 30.9775 57.2825C31.007 57.2219 31.0291 57.5249 31.0291 57.9491C31.0365 58.9945 31.1692 59.2748 31.7589 59.4641L32.1644 59.6005L32.4667 59.396C33.0639 58.9869 33.9412 57.3809 36.1455 52.6616C37.3841 50.0102 38.2171 48.3361 38.2171 48.4649C38.2171 48.4952 38.136 48.9194 38.0328 49.4118C37.9222 49.9117 37.819 50.6768 37.7969 51.1162L37.7527 51.9192L37.9812 52.2676C38.195 52.5782 38.254 52.6161 38.5858 52.6616C39.0945 52.7373 39.4704 52.5025 40.016 51.7677C40.8343 50.6693 41.6084 49.1769 43.8201 44.4803C44.6606 42.6849 45.5158 41.0108 45.5674 41.0563C45.5821 41.0714 45.4789 41.5638 45.3389 42.1471C44.7269 44.7075 44.7491 45.6241 45.42 46.0332C46.054 46.4195 46.9387 45.9877 47.2852 45.1242C48.2657 42.6698 49.9834 39.4503 51.7307 36.7535C57.2747 28.2086 65.8635 20.2773 76.347 14.005C82.6062 10.2628 89.5141 7.18725 94.837 5.77825C97.3878 5.10406 98.8475 4.95255 99.9091 5.24799Z" fill="#D400FF"/>
<path d="M330.804 1.18025C326.115 1.79385 318.006 4.96789 310.928 8.96005C297.459 16.5505 287.086 26.4968 281.158 37.4961C280.908 37.9506 280.709 38.3066 280.709 38.2915C280.709 38.2687 280.76 37.9885 280.819 37.6627C281.04 36.4658 280.937 35.8295 280.473 35.4583C279.949 35.0493 279.293 35.2614 278.571 36.0643C277.686 37.0415 277.03 38.2309 274.929 42.6321C274.037 44.4956 273.299 46.0031 273.285 45.9955C273.27 45.9804 273.344 45.541 273.447 45.0259C273.712 43.7305 273.764 42.8593 273.609 42.4427C273.513 42.1852 273.41 42.0715 273.137 41.92C272.806 41.7306 272.769 41.7231 272.496 41.8215C272.017 41.9958 271.737 42.2761 271.169 43.1624C270.387 44.3896 269.451 46.1546 268.397 48.4044C267.888 49.4877 267.173 51.0028 266.797 51.7754C266.163 53.0708 266.119 53.1466 266.156 52.7981C266.222 52.139 266.082 51.4421 265.809 51.0937C265.581 50.8058 265.551 50.7907 265.16 50.7907C264.431 50.7907 264.077 51.1921 263.207 53.0102C262.587 54.3056 262.175 55.2979 261.01 58.2523C260.472 59.6234 259.97 60.7445 259.491 61.6612C258.496 63.5625 257.965 64.661 257.788 65.1912C257.641 65.6306 257.523 65.7669 254.633 68.7743C248.152 75.5012 241.517 82.8492 241.694 83.0916C241.982 83.4855 242.682 84.3491 242.719 84.3491C242.793 84.3491 243.898 83.6824 244.584 83.2279C245.292 82.7583 245.321 82.7431 247.349 81.9098C257.626 77.6677 267.173 75.183 273.189 75.183C275.32 75.183 277.605 75.5921 278.726 76.1754C279.323 76.4859 279.654 77.1223 280.274 79.1752C281.085 81.872 281.652 82.8113 282.817 83.3946C283.894 83.9324 285.206 84.296 286.902 84.5157C287.889 84.6445 291.391 84.6445 292.689 84.5157C297.953 84.0006 304.101 82.6219 310.788 80.4705C311.702 80.1827 312.469 79.9251 312.498 79.91C312.521 79.8948 312.425 79.5009 312.277 79.0464C312.063 78.3873 311.982 78.2207 311.894 78.2586C311.835 78.2813 310.884 78.5843 309.785 78.9328C297.732 82.7583 287.948 83.8794 283.783 81.9023C282.891 81.478 282.67 81.0841 281.918 78.6146C281.357 76.789 280.989 75.9632 280.443 75.3421C279.817 74.63 278.792 74.1679 277.037 73.7891C275.666 73.4937 274.509 73.4104 272.466 73.4634C269.458 73.5392 266.436 73.9937 262.506 74.9633C259.218 75.7739 254.382 77.2965 250.887 78.6146C250.607 78.7282 250.371 78.804 250.364 78.7964C250.349 78.7888 250.629 78.5388 250.983 78.251C251.979 77.4253 255.503 74.3043 257.338 72.6226C258.982 71.1075 258.997 71.0999 259.344 71.0924C260.096 71.0848 260.766 70.8954 262.683 70.1454C262.971 70.0318 264.099 69.6758 265.19 69.35C267.394 68.6986 268.072 68.4486 268.493 68.1683C269.2 67.6911 269.259 66.8805 268.625 66.4108L268.331 66.1912L270.115 65.4488C273.344 64.108 274.472 63.6004 275.157 63.1989C276.344 62.502 276.801 62.0096 276.801 61.4339C276.801 61.0248 276.588 60.6915 276.197 60.4946C275.931 60.3658 275.732 60.3355 275.098 60.3355H274.332L274.678 60.1082C275.939 59.2977 279.404 57.4417 285.501 54.3283C292.092 50.9649 293.168 50.2528 293.168 49.2907C293.168 48.1772 292.239 48.0105 289.674 48.6696C289.187 48.7908 288.781 48.8817 288.774 48.8741C288.767 48.8665 289.57 48.3438 290.573 47.7227C297.061 43.6699 304.182 38.9581 306.401 37.2461C307.463 36.428 308.694 35.2917 312.521 31.5949C313.169 30.9662 314.843 29.383 316.236 28.0724C322.333 22.3455 326.543 18.0807 329.706 14.4294C334.298 9.1267 336.237 5.54361 335.677 3.40738C335.53 2.83166 335.316 2.4529 334.933 2.08929C334.07 1.27116 332.603 0.945421 330.804 1.18025ZM333.112 3.03619C333.908 3.26345 334.158 3.74069 333.974 4.69518C333.325 8.15707 326.926 15.6717 315.58 26.2847C313.796 27.9512 312.742 28.9512 310.633 30.9889C307.714 33.8069 306.232 35.1629 305.369 35.8295C302.207 38.2687 289.224 46.6621 283.695 49.8437C282.662 50.4346 282.146 50.8664 282.065 51.1997C282.014 51.4118 282.338 52.1087 282.515 52.1845C282.743 52.2754 283.4 52.2299 283.989 52.086C284.314 52.0027 285.361 51.7148 286.312 51.4421C287.263 51.1618 288.111 50.9194 288.192 50.8967C288.273 50.8816 285.818 52.1693 282.736 53.7677C275.762 57.3811 274.391 58.1387 272.835 59.2143C271.678 60.0249 271.324 60.5249 271.449 61.1915C271.501 61.4642 271.862 61.8733 272.157 61.9869C272.267 62.0323 272.577 62.0854 272.857 62.1157L273.358 62.1763L272.407 62.5702C271.884 62.7899 270.66 63.305 269.687 63.7065C266.753 64.9337 265.92 65.3806 265.551 65.9336C265.323 66.2745 265.315 66.7669 265.522 67.1229C265.669 67.3577 265.669 67.3729 265.544 67.4108C265.47 67.4335 264.873 67.6077 264.209 67.7971C263.546 67.9865 262.728 68.2365 262.388 68.3653C262.042 68.4865 261.762 68.5698 261.762 68.5622C261.762 68.5471 262.551 67.7895 263.509 66.8805C265.75 64.7594 272.127 58.6462 276.027 54.8813C287.403 43.8972 289.998 41.4428 301.646 30.6783C310.663 22.3455 311.879 21.1941 313.855 19.1715C315.285 17.7019 315.669 17.2474 316.996 15.4899C317.829 14.3839 318.485 13.4749 318.463 13.4598C318.345 13.4143 314.703 15.0278 313.958 15.4596C309.129 18.2852 298.631 26.9589 285.243 39.1929C275.931 47.7075 271.987 51.4497 262.182 61.0854L261.305 61.9566L261.6 61.3506C261.762 61.0248 262.197 59.9643 262.573 59.0098C263.236 57.313 264.069 55.2676 264.18 55.0707C264.209 55.0101 264.231 55.3131 264.231 55.7373C264.239 56.7827 264.372 57.063 264.961 57.2523L265.367 57.3887L265.669 57.1842C266.266 56.7751 267.144 55.1692 269.348 50.4498C270.586 47.7984 271.42 46.1243 271.42 46.2531C271.42 46.2834 271.338 46.7076 271.235 47.2C271.125 47.6999 271.021 48.465 270.999 48.9044L270.955 49.7074L271.184 50.0558C271.397 50.3664 271.456 50.4043 271.788 50.4498C272.297 50.5255 272.673 50.2907 273.218 49.5559C274.037 48.4575 274.811 46.9651 277.023 42.2685C277.863 40.4731 278.718 38.799 278.77 38.8445C278.785 38.8596 278.681 39.352 278.541 39.9353C277.929 42.4957 277.951 43.4123 278.622 43.8214C279.256 44.2077 280.141 43.776 280.488 42.9124C281.468 40.458 283.186 37.2385 284.933 34.5417C290.477 25.9968 299.066 18.0655 309.549 11.7932C315.809 8.05102 322.716 4.97546 328.039 3.56646C330.59 2.89226 332.05 2.74076 333.112 3.03619Z" fill="#F44336"/>
<path d="M403.546 0.0744189C398.858 0.688015 390.748 3.86205 383.671 7.85421C370.201 15.4446 359.828 25.3909 353.901 36.3902C353.65 36.8447 353.451 37.2008 353.451 37.1856C353.451 37.1629 353.503 36.8826 353.562 36.5569C353.783 35.36 353.68 34.7237 353.215 34.3525C352.692 33.9434 352.036 34.1555 351.313 34.9585C350.428 35.9357 349.772 37.125 347.671 41.5263C346.779 43.3898 346.042 44.8972 346.027 44.8897C346.012 44.8745 346.086 44.4352 346.189 43.92C346.455 42.6247 346.506 41.7535 346.352 41.3369C346.256 41.0793 346.153 40.9657 345.88 40.8142C345.548 40.6248 345.511 40.6172 345.238 40.7157C344.759 40.8899 344.479 41.1702 343.911 42.0565C343.13 43.2837 342.194 45.0488 341.139 47.2986C340.631 48.3819 339.915 49.8969 339.539 50.6696C338.905 51.965 338.861 52.0407 338.898 51.6923C338.964 51.0332 338.824 50.3363 338.552 49.9878C338.323 49.7 338.294 49.6848 337.903 49.6848C337.173 49.6848 336.819 50.0863 335.949 51.9044C335.33 53.1997 334.917 54.1921 333.752 57.1464C333.214 58.5176 332.713 59.6387 332.233 60.5553C331.238 62.4567 330.707 63.5551 330.53 64.0854C330.383 64.5248 330.265 64.6611 327.375 67.6685C320.895 74.3953 314.26 81.7433 314.437 81.9857C314.724 82.3796 315.424 83.2432 315.461 83.2432C315.535 83.2432 316.641 82.5766 317.327 82.1221C318.034 81.6524 318.064 81.6373 320.091 80.804C330.368 76.5618 339.915 74.0772 345.931 74.0772C348.062 74.0772 350.347 74.4862 351.468 75.0695C352.065 75.3801 352.397 76.0164 353.016 78.0693C353.827 80.7661 354.395 81.7055 355.56 82.2887C356.636 82.8266 357.948 83.1902 359.644 83.4099C360.632 83.5387 364.134 83.5387 365.431 83.4099C370.695 82.8948 376.844 81.5161 383.53 79.3647C384.445 79.0768 385.211 78.8193 385.241 78.8041C385.263 78.789 385.167 78.3951 385.02 77.9405C384.806 77.2815 384.725 77.1148 384.636 77.1527C384.577 77.1754 383.626 77.4785 382.528 77.8269C370.474 81.6524 360.691 82.7736 356.525 80.7964C355.633 80.3722 355.412 79.9783 354.66 77.5088C354.1 75.6831 353.731 74.8574 353.186 74.2362C352.559 73.5242 351.534 73.0621 349.78 72.6833C348.408 72.3879 347.251 72.3045 345.209 72.3576C342.201 72.4333 339.178 72.8878 335.249 73.8575C331.961 74.668 327.124 76.1907 323.63 77.5088C323.35 77.6224 323.114 77.6981 323.106 77.6906C323.092 77.683 323.372 77.433 323.726 77.1451C324.721 76.3194 328.245 73.1984 330.081 71.5167C331.725 70.0017 331.74 69.9941 332.086 69.9865C332.838 69.9789 333.509 69.7896 335.426 69.0396C335.713 68.926 336.841 68.5699 337.932 68.2442C340.137 67.5927 340.815 67.3428 341.235 67.0625C341.943 66.5852 342.002 65.7747 341.368 65.305L341.073 65.0853L342.857 64.3429C346.086 63.0021 347.214 62.4946 347.9 62.0931C349.087 61.3962 349.544 60.9038 349.544 60.3281C349.544 59.919 349.33 59.5857 348.939 59.3887C348.674 59.2599 348.475 59.2296 347.841 59.2296H347.074L347.421 59.0024C348.681 58.1918 352.146 56.3359 358.243 53.2225C364.834 49.859 365.91 49.147 365.91 48.1849C365.91 47.0713 364.982 46.9047 362.416 47.5637C361.929 47.6849 361.524 47.7758 361.517 47.7683C361.509 47.7607 362.313 47.238 363.315 46.6168C369.803 42.5641 376.925 37.8523 379.144 36.1402C380.205 35.3221 381.437 34.1858 385.263 30.4891C385.912 29.8604 387.585 28.2771 388.979 26.9666C395.076 21.2397 399.285 16.9748 402.448 13.3236C407.041 8.02087 408.98 4.43777 408.42 2.30155C408.272 1.72583 408.058 1.34706 407.675 0.98345C406.812 0.165322 405.345 -0.160414 403.546 0.0744189ZM405.854 1.93036C406.65 2.15762 406.901 2.63486 406.717 3.58934C406.068 7.05124 399.669 14.5659 388.322 25.1788C386.538 26.8454 385.484 27.8453 383.376 29.8831C380.456 32.7011 378.974 34.057 378.112 34.7237C374.949 37.1629 361.966 45.5563 356.437 48.7379C355.405 49.3288 354.889 49.7606 354.808 50.0939C354.756 50.306 355.08 51.0029 355.257 51.0787C355.486 51.1696 356.142 51.1241 356.732 50.9802C357.056 50.8969 358.103 50.609 359.054 50.3363C360.005 50.056 360.853 49.8136 360.934 49.7909C361.015 49.7757 358.56 51.0635 355.479 52.6619C348.504 56.2753 347.133 57.0328 345.577 58.1085C344.42 58.9191 344.066 59.419 344.191 60.0857C344.243 60.3584 344.604 60.7674 344.899 60.8811C345.01 60.9265 345.319 60.9795 345.6 61.0098L346.101 61.0704L345.15 61.4643C344.626 61.684 343.403 62.1991 342.429 62.6006C339.495 63.8278 338.662 64.2748 338.294 64.8278C338.065 65.1687 338.058 65.661 338.264 66.0171C338.412 66.2519 338.412 66.2671 338.286 66.3049C338.212 66.3277 337.615 66.5019 336.952 66.6913C336.288 66.8807 335.47 67.1306 335.131 67.2594C334.784 67.3806 334.504 67.464 334.504 67.4564C334.504 67.4412 335.293 66.6837 336.251 65.7747C338.493 63.6536 344.87 57.5404 348.77 53.7755C360.145 42.7913 362.74 40.3369 374.389 29.5725C383.405 21.2397 384.622 20.0883 386.597 18.0657C388.028 16.5961 388.411 16.1416 389.738 14.3841C390.571 13.2781 391.227 12.3691 391.205 12.3539C391.087 12.3085 387.445 13.922 386.701 14.3538C381.872 17.1794 371.373 25.853 357.985 38.0871C348.674 46.6017 344.73 50.3439 334.924 59.9796L334.047 60.8508L334.342 60.2447C334.504 59.919 334.939 58.8585 335.315 57.904C335.979 56.2071 336.812 54.1618 336.922 53.9648C336.952 53.9042 336.974 54.2072 336.974 54.6315C336.981 55.6768 337.114 55.9571 337.704 56.1465L338.109 56.2829L338.412 56.0783C339.009 55.6693 339.886 54.0633 342.09 49.3439C343.329 46.6926 344.162 45.0185 344.162 45.1472C344.162 45.1775 344.081 45.6017 343.978 46.0941C343.867 46.5941 343.764 47.3592 343.742 47.7986L343.698 48.6016L343.926 48.95C344.14 49.2606 344.199 49.2985 344.531 49.3439C345.039 49.4197 345.415 49.1848 345.961 48.45C346.779 47.3516 347.553 45.8593 349.765 41.1626C350.605 39.3673 351.461 37.6932 351.512 37.7386C351.527 37.7538 351.424 38.2462 351.284 38.8295C350.672 41.3899 350.694 42.3065 351.365 42.7156C351.999 43.1019 352.883 42.6701 353.23 41.8065C354.211 39.3522 355.928 36.1327 357.676 33.4359C363.22 24.891 371.808 16.9597 382.292 10.6874C388.551 6.94518 395.459 3.86963 400.782 2.46063C403.333 1.78643 404.792 1.63492 405.854 1.93036Z" fill="black"/>
<path d="M179.971 5.05086C175.283 5.66446 167.173 8.83849 160.096 12.8307C146.626 20.4211 136.253 30.3674 130.326 41.3667C130.075 41.8212 129.876 42.1772 129.876 42.1621C129.876 42.1393 129.928 41.8591 129.987 41.5333C130.208 40.3364 130.105 39.7001 129.64 39.3289C129.117 38.9199 128.461 39.132 127.738 39.9349C126.854 40.9122 126.197 42.1015 124.096 46.5027C123.204 48.3662 122.467 49.8737 122.452 49.8661C122.437 49.851 122.511 49.4116 122.614 48.8965C122.88 47.6011 122.931 46.73 122.777 46.3133C122.681 46.0558 122.578 45.9421 122.305 45.7906C121.973 45.6012 121.936 45.5937 121.663 45.6921C121.184 45.8664 120.904 46.1467 120.336 47.033C119.555 48.2602 118.619 50.0252 117.564 52.275C117.056 53.3583 116.341 54.8734 115.965 55.646C115.331 56.9414 115.286 57.0172 115.323 56.6687C115.389 56.0097 115.249 55.3127 114.977 54.9643C114.748 54.6764 114.719 54.6613 114.328 54.6613C113.598 54.6613 113.244 55.0627 112.374 56.8808C111.755 58.1762 111.342 59.1685 110.177 62.1229C109.639 63.494 109.138 64.6152 108.659 65.5318C107.663 67.4331 107.132 68.5316 106.956 69.0618C106.808 69.5012 106.69 69.6376 103.8 72.6449C97.3198 79.3718 90.6847 86.7198 90.8616 86.9622C91.1491 87.3561 91.8495 88.2197 91.8864 88.2197C91.9601 88.2197 93.066 87.553 93.7516 87.0985C94.4593 86.6289 94.4888 86.6137 96.5162 85.7804C106.793 81.5383 116.341 79.0536 122.356 79.0536C124.487 79.0536 126.772 79.4627 127.893 80.046C128.49 80.3565 128.822 80.9929 129.441 83.0458C130.252 85.7426 130.82 86.6819 131.985 87.2652C133.061 87.803 134.373 88.1666 136.069 88.3863C137.057 88.5151 140.559 88.5151 141.856 88.3863C147.12 87.8712 153.269 86.4925 159.955 84.3411C160.87 84.0533 161.636 83.7957 161.666 83.7806C161.688 83.7654 161.592 83.3715 161.445 82.917C161.231 82.2579 161.15 82.0913 161.061 82.1292C161.002 82.1519 160.051 82.4549 158.953 82.8034C146.899 86.6289 137.116 87.75 132.95 85.7729C132.058 85.3486 131.837 84.9547 131.085 82.4852C130.525 80.6596 130.156 79.8339 129.611 79.2127C128.984 78.5006 127.959 78.0385 126.205 77.6598C124.834 77.3643 123.676 77.281 121.634 77.334C118.626 77.4098 115.603 77.8643 111.674 78.8339C108.386 79.6445 103.549 81.1671 100.055 82.4852C99.7748 82.5988 99.5389 82.6746 99.5315 82.667C99.5168 82.6594 99.7969 82.4094 100.151 82.1216C101.146 81.2959 104.67 78.1749 106.506 76.4932C108.15 74.9781 108.165 74.9705 108.511 74.963C109.263 74.9554 109.934 74.766 111.851 74.0161C112.138 73.9024 113.266 73.5464 114.357 73.2206C116.562 72.5692 117.24 72.3192 117.66 72.0389C118.368 71.5617 118.427 70.7511 117.793 70.2814L117.498 70.0618L119.282 69.3194C122.511 67.9786 123.639 67.471 124.325 67.0695C125.512 66.3726 125.969 65.8802 125.969 65.3045C125.969 64.8954 125.755 64.5621 125.364 64.3652C125.099 64.2364 124.9 64.2061 124.266 64.2061H123.499L123.846 63.9788C125.106 63.1683 128.571 61.3123 134.668 58.1989C141.259 54.8355 142.336 54.1234 142.336 53.1614C142.336 52.0478 141.407 51.8811 138.841 52.5402C138.354 52.6614 137.949 52.7523 137.942 52.7447C137.934 52.7371 138.738 52.2144 139.74 51.5933C146.228 47.5405 153.35 42.8287 155.569 41.1167C156.631 40.2986 157.862 39.1623 161.688 35.4655C162.337 34.8368 164.01 33.2536 165.404 31.943C171.501 26.2161 175.71 21.9513 178.873 18.3C183.466 12.9973 185.405 9.41421 184.845 7.27799C184.697 6.70227 184.483 6.3235 184.1 5.95989C183.237 5.14176 181.77 4.81603 179.971 5.05086ZM182.279 6.9068C183.075 7.13406 183.326 7.6113 183.142 8.56578C182.493 12.0277 176.094 19.5423 164.748 30.1553C162.963 31.8218 161.909 32.8218 159.801 34.8595C156.881 37.6775 155.399 39.0335 154.537 39.7001C151.374 42.1393 138.391 50.5327 132.862 53.7143C131.83 54.3052 131.314 54.737 131.233 55.0703C131.181 55.2824 131.505 55.9794 131.682 56.0551C131.911 56.146 132.567 56.1006 133.157 55.9566C133.481 55.8733 134.528 55.5854 135.479 55.3127C136.43 55.0324 137.278 54.79 137.359 54.7673C137.44 54.7522 134.985 56.04 131.904 57.6383C124.929 61.2517 123.558 62.0093 122.003 63.0849C120.845 63.8955 120.491 64.3955 120.617 65.0621C120.668 65.3348 121.029 65.7439 121.324 65.8575C121.435 65.9029 121.744 65.956 122.025 65.9863L122.526 66.0469L121.575 66.4408C121.051 66.6605 119.828 67.1756 118.855 67.5771C115.92 68.8043 115.087 69.2512 114.719 69.8042C114.49 70.1451 114.483 70.6375 114.689 70.9935C114.837 71.2284 114.837 71.2435 114.711 71.2814C114.638 71.3041 114.04 71.4783 113.377 71.6677C112.713 71.8571 111.895 72.1071 111.556 72.2359C111.209 72.3571 110.929 72.4404 110.929 72.4328C110.929 72.4177 111.718 71.6601 112.676 70.7511C114.918 68.63 121.295 62.5168 125.195 58.7519C136.57 47.7678 139.165 45.3134 150.814 34.5489C159.83 26.2161 161.047 25.0647 163.022 23.0421C164.453 21.5725 164.836 21.118 166.163 19.3605C166.996 18.2545 167.652 17.3455 167.63 17.3304C167.512 17.2849 163.87 18.8984 163.126 19.3302C158.297 22.1558 147.798 30.8295 134.41 43.0635C125.099 51.5781 121.155 55.3203 111.349 64.956L110.472 65.8272L110.767 65.2212C110.929 64.8954 111.364 63.8349 111.74 62.8804C112.404 61.1836 113.237 59.1382 113.347 58.9413C113.377 58.8807 113.399 59.1837 113.399 59.6079C113.406 60.6533 113.539 60.9336 114.129 61.123L114.534 61.2593L114.837 61.0548C115.434 60.6457 116.311 59.0398 118.515 54.3204C119.754 51.669 120.587 49.9949 120.587 50.1237C120.587 50.154 120.506 50.5782 120.403 51.0706C120.292 51.5705 120.189 52.3356 120.167 52.775L120.123 53.578L120.351 53.9265C120.565 54.237 120.624 54.2749 120.956 54.3204C121.464 54.3961 121.84 54.1613 122.386 53.4265C123.204 52.3281 123.978 50.8357 126.19 46.1391C127.03 44.3437 127.886 42.6696 127.937 42.7151C127.952 42.7302 127.849 43.2226 127.709 43.8059C127.097 46.3663 127.119 47.2829 127.79 47.692C128.424 48.0784 129.309 47.6466 129.655 46.783C130.636 44.3286 132.353 41.1091 134.101 38.4123C139.645 29.8674 148.233 21.9361 158.717 15.6638C164.976 11.9216 171.884 8.84607 177.207 7.43707C179.758 6.76287 181.217 6.61136 182.279 6.9068Z" fill="#673AB7"/>
<path d="M259.132 7.26259C254.443 7.87619 246.333 11.0502 239.256 15.0424C225.786 22.6328 215.413 32.5791 209.486 43.5784C209.235 44.0329 209.036 44.389 209.036 44.3738C209.036 44.3511 209.088 44.0708 209.147 43.7451C209.368 42.5482 209.265 41.9118 208.8 41.5407C208.277 41.1316 207.621 41.3437 206.898 42.1467C206.014 43.1239 205.358 44.3132 203.256 48.7144C202.364 50.5779 201.627 52.0854 201.612 52.0778C201.598 52.0627 201.671 51.6233 201.775 51.1082C202.04 49.8128 202.092 48.9417 201.937 48.525C201.841 48.2675 201.738 48.1539 201.465 48.0024C201.133 47.813 201.096 47.8054 200.824 47.9039C200.344 48.0781 200.064 48.3584 199.497 49.2447C198.715 50.4719 197.779 52.2369 196.725 54.4868C196.216 55.57 195.501 57.0851 195.125 57.8578C194.491 59.1531 194.446 59.2289 194.483 58.8804C194.55 58.2214 194.41 57.5245 194.137 57.176C193.908 56.8881 193.879 56.873 193.488 56.873C192.758 56.873 192.404 57.2745 191.534 59.0925C190.915 60.3879 190.502 61.3803 189.337 64.3346C188.799 65.7057 188.298 66.8269 187.819 67.7435C186.823 69.6449 186.293 70.7433 186.116 71.2736C185.968 71.7129 185.85 71.8493 182.96 74.8567C176.48 81.5835 169.845 88.9315 170.022 89.1739C170.309 89.5678 171.01 90.4314 171.047 90.4314C171.12 90.4314 172.226 89.7648 172.912 89.3103C173.619 88.8406 173.649 88.8254 175.676 87.9922C185.953 83.75 195.501 81.2653 201.517 81.2653C203.647 81.2653 205.933 81.6744 207.053 82.2577C207.65 82.5683 207.982 83.2046 208.601 85.2575C209.412 87.9543 209.98 88.8936 211.145 89.4769C212.221 90.0148 213.534 90.3784 215.229 90.5981C216.217 90.7268 219.719 90.7268 221.016 90.5981C226.28 90.0829 232.429 88.7042 239.116 86.5529C240.03 86.265 240.797 86.0074 240.826 85.9923C240.848 85.9771 240.752 85.5832 240.605 85.1287C240.391 84.4697 240.31 84.303 240.221 84.3409C240.163 84.3636 239.211 84.6666 238.113 85.0151C226.059 88.8406 216.276 89.9617 212.111 87.9846C211.219 87.5604 210.997 87.1665 210.245 84.6969C209.685 82.8713 209.317 82.0456 208.771 81.4244C208.144 80.7123 207.12 80.2502 205.365 79.8715C203.994 79.576 202.836 79.4927 200.794 79.5457C197.786 79.6215 194.763 80.076 190.834 81.0457C187.546 81.8562 182.71 83.3788 179.215 84.6969C178.935 84.8106 178.699 84.8863 178.692 84.8787C178.677 84.8712 178.957 84.6212 179.311 84.3333C180.306 83.5076 183.83 80.3866 185.666 78.7049C187.31 77.1898 187.325 77.1823 187.671 77.1747C188.423 77.1671 189.094 76.9777 191.011 76.2278C191.298 76.1142 192.426 75.7581 193.518 75.4324C195.722 74.7809 196.4 74.5309 196.82 74.2506C197.528 73.7734 197.587 72.9628 196.953 72.4932L196.658 72.2735L198.442 71.5311C201.671 70.1903 202.799 69.6828 203.485 69.2813C204.672 68.5843 205.129 68.092 205.129 67.5162C205.129 67.1072 204.915 66.7739 204.524 66.5769C204.259 66.4481 204.06 66.4178 203.426 66.4178H202.659L203.006 66.1906C204.266 65.38 207.731 63.5241 213.828 60.4106C220.419 57.0472 221.496 56.3351 221.496 55.3731C221.496 54.2595 220.567 54.0929 218.001 54.7519C217.515 54.8731 217.109 54.964 217.102 54.9564C217.094 54.9489 217.898 54.4262 218.901 53.805C225.388 49.7522 232.51 45.0404 234.729 43.3284C235.791 42.5103 237.022 41.374 240.848 37.6773C241.497 37.0485 243.17 35.4653 244.564 34.1548C250.661 28.4279 254.87 24.163 258.033 20.5117C262.626 15.209 264.565 11.6259 264.005 9.48972C263.857 8.914 263.644 8.53523 263.26 8.17162C262.398 7.35349 260.93 7.02776 259.132 7.26259ZM261.439 9.11853C262.235 9.34579 262.486 9.82303 262.302 10.7775C261.653 14.2394 255.254 21.7541 243.908 32.367C242.124 34.0336 241.069 35.0335 238.961 37.0712C236.041 39.8892 234.56 41.2452 233.697 41.9118C230.534 44.3511 217.551 52.7445 212.022 55.9261C210.99 56.5169 210.474 56.9487 210.393 57.2821C210.341 57.4942 210.666 58.1911 210.843 58.2668C211.071 58.3577 211.727 58.3123 212.317 58.1684C212.641 58.085 213.688 57.7972 214.639 57.5245C215.59 57.2442 216.438 57.0018 216.519 56.979C216.6 56.9639 214.145 58.2517 211.064 59.8501C204.089 63.4635 202.718 64.221 201.163 65.2967C200.005 66.1072 199.651 66.6072 199.777 67.2738C199.828 67.5465 200.19 67.9556 200.484 68.0692C200.595 68.1147 200.905 68.1677 201.185 68.198L201.686 68.2586L200.735 68.6525C200.212 68.8722 198.988 69.3873 198.015 69.7888C195.08 71.016 194.247 71.4629 193.879 72.0159C193.65 72.3568 193.643 72.8492 193.849 73.2053C193.997 73.4401 193.997 73.4552 193.871 73.4931C193.798 73.5158 193.201 73.6901 192.537 73.8795C191.873 74.0688 191.055 74.3188 190.716 74.4476C190.37 74.5688 190.089 74.6521 190.089 74.6446C190.089 74.6294 190.878 73.8719 191.837 72.9628C194.078 70.8418 200.455 64.7285 204.355 60.9636C215.73 49.9795 218.326 47.5251 229.974 36.7607C238.99 28.4279 240.207 27.2764 242.183 25.2538C243.613 23.7842 243.996 23.3297 245.323 21.5723C246.156 20.4663 246.812 19.5572 246.79 19.5421C246.672 19.4966 243.03 21.1102 242.286 21.542C237.457 24.3675 226.959 33.0412 213.57 45.2753C204.259 53.7899 200.315 57.532 190.51 67.1678L189.632 68.0389L189.927 67.4329C190.089 67.1072 190.524 66.0466 190.9 65.0921C191.564 63.3953 192.397 61.35 192.508 61.153C192.537 61.0924 192.559 61.3954 192.559 61.8196C192.566 62.865 192.699 63.1453 193.289 63.3347L193.694 63.471L193.997 63.2665C194.594 62.8574 195.471 61.2515 197.676 56.5321C198.914 53.8808 199.747 52.2066 199.747 52.3354C199.747 52.3657 199.666 52.7899 199.563 53.2823C199.452 53.7823 199.349 54.5474 199.327 54.9867L199.283 55.7897L199.511 56.1382C199.725 56.4488 199.784 56.4866 200.116 56.5321C200.624 56.6079 201 56.373 201.546 55.6382C202.364 54.5398 203.138 53.0475 205.35 48.3508C206.191 46.5555 207.046 44.8813 207.097 44.9268C207.112 44.9419 207.009 45.4343 206.869 46.0176C206.257 48.5781 206.279 49.4947 206.95 49.9037C207.584 50.2901 208.469 49.8583 208.815 48.9947C209.796 46.5403 211.513 43.3208 213.261 40.624C218.805 32.0792 227.394 24.1479 237.877 17.8755C244.136 14.1334 251.044 11.0578 256.367 9.6488C258.918 8.9746 260.378 8.82309 261.439 9.11853Z" fill="#009688"/>
<path d="M2.74707 111.739C2.74707 111.683 2.74707 111.569 2.74707 111.399C2.76595 111.23 2.77539 111.107 2.77539 111.031C2.83203 110.918 2.92643 110.729 3.05859 110.465C3.20964 110.182 3.37956 109.87 3.56836 109.53C3.75716 109.172 3.94596 108.803 4.13477 108.426C4.34245 108.048 4.54069 107.69 4.72949 107.35C4.91829 107.01 5.07878 106.708 5.21094 106.443C5.36198 106.16 5.46582 105.953 5.52246 105.82C5.54134 105.764 5.5791 105.669 5.63574 105.537C5.69238 105.405 5.74902 105.273 5.80566 105.141C5.8623 104.99 5.90951 104.848 5.94727 104.716C6.00391 104.584 6.04167 104.489 6.06055 104.433C5.8151 104.112 5.49414 103.81 5.09766 103.526C4.72005 103.224 4.30469 102.922 3.85156 102.62C3.39844 102.299 2.94531 101.969 2.49219 101.629C2.03906 101.289 1.6237 100.94 1.24609 100.581C0.88737 100.204 0.585286 99.8165 0.339844 99.42C0.113281 99.0046 0 98.5609 0 98.0889C0 97.7302 0.0377604 97.4942 0.113281 97.3809C0.207682 97.2488 0.396484 97.1827 0.679688 97.1827C0.698568 97.1827 0.764648 97.1921 0.87793 97.211C0.991211 97.211 1.06673 97.2204 1.10449 97.2393C1.27441 97.5225 1.4821 97.8529 1.72754 98.2305C1.99186 98.6081 2.27507 99.0046 2.57715 99.42C2.87923 99.8353 3.2002 100.241 3.54004 100.638C3.89876 101.034 4.25749 101.393 4.61621 101.714C4.97493 102.035 5.3431 102.299 5.7207 102.507C6.11719 102.696 6.50423 102.79 6.88184 102.79C6.9196 102.79 6.9668 102.79 7.02344 102.79C7.09896 102.79 7.14616 102.79 7.16504 102.79C7.24056 102.658 7.35384 102.431 7.50488 102.11C7.6748 101.789 7.84473 101.459 8.01465 101.119C8.18457 100.76 8.34505 100.43 8.49609 100.128C8.66602 99.807 8.7793 99.5899 8.83594 99.4766C8.8737 99.3633 8.93034 99.184 9.00586 98.9385C9.08138 98.6742 9.1569 98.4005 9.23242 98.1172C9.32682 97.834 9.43066 97.5414 9.54395 97.2393C9.65723 96.9372 9.77995 96.6635 9.91211 96.418C10.0443 96.1726 10.1859 95.9743 10.3369 95.8233C10.5068 95.6534 10.6956 95.5684 10.9033 95.5684L10.9316 95.5967H10.9883C10.9883 95.6156 10.9977 95.6251 11.0166 95.6251C11.0544 95.6251 11.1016 95.6534 11.1582 95.71C11.2148 95.7478 11.2715 95.795 11.3281 95.8516C11.4036 95.9083 11.4603 95.9649 11.498 96.0215C11.5547 96.0782 11.583 96.1159 11.583 96.1348C11.2243 97.5131 10.79 98.8725 10.2803 100.213C9.77051 101.553 9.19466 102.866 8.55273 104.149V104.716C8.42057 104.867 8.20345 105.178 7.90137 105.65C7.59928 106.104 7.26888 106.632 6.91016 107.236C6.55143 107.822 6.17383 108.435 5.77734 109.077C5.39974 109.719 5.04102 110.314 4.70117 110.861C4.36133 111.39 4.06868 111.834 3.82324 112.192C3.5778 112.551 3.41732 112.731 3.3418 112.731C3.02083 112.731 2.84147 112.636 2.80371 112.447C2.76595 112.259 2.74707 112.023 2.74707 111.739ZM15.5943 109.36C15.5943 108.718 15.7076 108.058 15.9341 107.378C16.1607 106.698 16.4817 106.075 16.897 105.509C17.3313 104.942 17.841 104.48 18.4263 104.121C19.0116 103.762 19.6819 103.583 20.4371 103.583C21.4944 103.583 22.3817 103.687 23.0992 103.895C23.8166 104.102 24.4019 104.423 24.855 104.857C25.3082 105.273 25.6291 105.82 25.8179 106.5C26.0256 107.161 26.1295 107.944 26.1295 108.851C26.1295 108.907 26.12 109.021 26.1011 109.19C26.1011 109.342 26.1011 109.502 26.1011 109.672C26.1011 109.842 26.0917 110.012 26.0728 110.182C26.0728 110.333 26.0728 110.446 26.0728 110.522C25.9407 110.994 25.6858 111.381 25.3082 111.683C24.9494 111.966 24.5246 112.183 24.0338 112.334C23.5617 112.485 23.0614 112.589 22.5328 112.646C22.023 112.702 21.5604 112.731 21.1451 112.731C20.5598 112.731 19.9462 112.693 19.3043 112.617C18.6623 112.542 18.0582 112.391 17.4918 112.164C16.9442 111.919 16.4911 111.579 16.1324 111.145C15.7737 110.691 15.5943 110.097 15.5943 109.36ZM17.0103 108.992C17.0103 109.483 17.1519 109.889 17.4351 110.21C17.7372 110.512 18.0959 110.748 18.5113 110.918C18.9267 111.088 19.3703 111.201 19.8423 111.258C20.3332 111.315 20.7486 111.343 21.0884 111.343C21.4283 111.343 21.7209 111.343 21.9664 111.343C22.2307 111.343 22.4856 111.315 22.731 111.258C22.9765 111.201 23.2313 111.116 23.4957 111.003C23.76 110.89 24.0715 110.729 24.4302 110.522C24.619 110.219 24.7229 109.927 24.7418 109.644C24.7606 109.342 24.7701 109.03 24.7701 108.709C24.7701 108.067 24.6474 107.501 24.4019 107.01C24.1565 106.519 23.8261 106.122 23.4107 105.82C22.9953 105.518 22.495 105.32 21.9097 105.226C21.3433 105.112 20.7108 105.122 20.0123 105.254C19.7291 105.311 19.4081 105.481 19.0494 105.764C18.6907 106.047 18.3602 106.377 18.0582 106.755C17.7561 107.133 17.5012 107.529 17.2935 107.944C17.1047 108.341 17.0103 108.69 17.0103 108.992ZM39.9113 110.21C39.4204 110.21 38.9295 110.333 38.4386 110.578C37.9666 110.805 37.4757 111.069 36.9659 111.371C36.4562 111.673 35.9275 111.947 35.38 112.192C34.8325 112.419 34.2755 112.532 33.7091 112.532C33.6336 112.532 33.5203 112.532 33.3693 112.532C33.2182 112.513 33.0483 112.504 32.8595 112.504C32.6896 112.485 32.5291 112.476 32.378 112.476C32.227 112.476 32.1232 112.466 32.0665 112.447C31.7078 112.24 31.4152 111.994 31.1886 111.711C30.9809 111.428 30.811 111.126 30.6788 110.805C30.5655 110.465 30.4806 110.116 30.4239 109.757C30.3673 109.398 30.339 109.039 30.339 108.681V107.888C30.339 107.548 30.3484 107.18 30.3673 106.783C30.4051 106.387 30.4428 105.981 30.4806 105.565C30.5372 105.15 30.6127 104.773 30.7071 104.433C30.8016 104.074 30.9337 103.772 31.1036 103.526C31.2736 103.281 31.5001 103.121 31.7833 103.045C31.8966 103.007 32.0099 103.036 32.1232 103.13C32.2364 103.224 32.3214 103.338 32.378 103.47C32.4536 103.583 32.5102 103.715 32.548 103.866C32.5857 103.998 32.6046 104.093 32.6046 104.149C32.6046 104.206 32.5763 104.329 32.5196 104.518C32.463 104.706 32.3969 104.914 32.3214 105.141C32.2648 105.348 32.2081 105.547 32.1515 105.735C32.0948 105.924 32.0665 106.037 32.0665 106.075C32.0665 106.094 32.0571 106.179 32.0382 106.33C32.0382 106.462 32.0288 106.613 32.0099 106.783C32.0099 106.953 32.0099 107.142 32.0099 107.35C32.0099 107.538 32.0099 107.69 32.0099 107.803C32.0099 108.048 32.0004 108.331 31.9816 108.652C31.9627 108.954 31.9721 109.257 32.0099 109.559C32.0665 109.861 32.1515 110.144 32.2648 110.408C32.378 110.673 32.5857 110.88 32.8878 111.031C32.9067 111.031 32.9633 111.041 33.0577 111.06C33.171 111.06 33.2843 111.06 33.3976 111.06C33.5297 111.06 33.643 111.069 33.7374 111.088C33.8507 111.088 33.9262 111.088 33.964 111.088C34.9835 111.088 35.9464 110.861 36.8527 110.408C37.7589 109.955 38.5519 109.342 39.2316 108.567C39.2127 108.454 39.1938 108.237 39.1749 107.916C39.1749 107.595 39.1749 107.265 39.1749 106.925C39.1749 106.566 39.1749 106.236 39.1749 105.934C39.1938 105.613 39.2127 105.386 39.2316 105.254C39.2316 105.141 39.2504 105.027 39.2882 104.914C39.326 104.782 39.3732 104.659 39.4298 104.546C39.4864 104.433 39.562 104.338 39.6564 104.263C39.7696 104.187 39.8924 104.149 40.0245 104.149C40.3077 104.149 40.506 104.253 40.6193 104.461C40.7325 104.669 40.8081 104.942 40.8458 105.282C40.9025 105.622 40.9402 106.019 40.9591 106.472C40.9969 106.906 41.0629 107.35 41.1573 107.803C41.2517 108.256 41.4122 108.709 41.6388 109.162C41.8654 109.596 42.1958 109.993 42.63 110.352C43.0642 110.691 43.6307 110.984 44.3292 111.23C45.0278 111.456 45.9057 111.579 46.963 111.598C46.963 111.635 46.963 111.683 46.963 111.739C46.963 111.796 46.963 111.843 46.963 111.881C46.963 112.164 46.8403 112.372 46.5948 112.504C46.3494 112.617 46.0473 112.693 45.6886 112.731C45.3488 112.768 45.0089 112.778 44.6691 112.759C44.3292 112.74 44.0743 112.731 43.9044 112.731C43.338 112.731 42.8282 112.598 42.3751 112.334C41.922 112.07 41.5161 111.787 41.1573 111.484C40.7986 111.163 40.506 110.871 40.2794 110.607C40.0717 110.342 39.949 110.21 39.9113 110.21ZM51.5124 107.18C51.4935 107.18 51.4463 107.151 51.3708 107.095C51.2953 107.019 51.2575 106.953 51.2575 106.897C51.2386 106.897 51.2292 106.878 51.2292 106.84V106.698C51.2292 106.679 51.2386 106.661 51.2575 106.642C51.4652 106.434 51.6351 106.283 51.7673 106.189C51.9183 106.094 52.1165 106.047 52.362 106.047C52.4375 106.047 52.5036 106.066 52.5602 106.104C52.6358 106.141 52.6924 106.179 52.7302 106.217C52.7679 106.255 52.8057 106.292 52.8434 106.33C52.9001 106.368 52.9567 106.387 53.0134 106.387C53.07 106.387 53.1833 106.302 53.3532 106.132C53.5231 105.943 53.7497 105.717 54.0329 105.452C54.3161 105.188 54.6654 104.905 55.0807 104.603C55.4961 104.282 55.9587 103.989 56.4684 103.725C56.9971 103.46 57.5635 103.243 58.1677 103.073C58.7907 102.885 59.4704 102.79 60.2067 102.79H60.3766C60.4522 102.809 60.6032 102.847 60.8298 102.903C61.0752 102.941 61.3301 102.998 61.5944 103.073C61.8587 103.13 62.1042 103.187 62.3307 103.243C62.5762 103.281 62.7461 103.309 62.8405 103.328C62.8594 103.347 62.8971 103.385 62.9538 103.441C63.0104 103.479 63.0671 103.526 63.1237 103.583C63.1804 103.621 63.2276 103.668 63.2653 103.725C63.322 103.781 63.3597 103.829 63.3786 103.866C63.3786 103.885 63.388 103.913 63.4069 103.951C63.4069 103.951 63.4069 103.961 63.4069 103.98C63.4258 103.998 63.4352 104.008 63.4352 104.008L63.4069 104.065C63.4069 104.065 63.4069 104.074 63.4069 104.093C63.388 104.112 63.3786 104.131 63.3786 104.149C63.3597 104.206 63.3125 104.272 63.237 104.348C63.1615 104.404 63.1237 104.433 63.1237 104.433H58.1393C57.724 104.433 57.2708 104.555 56.78 104.801C56.308 105.027 55.8548 105.329 55.4206 105.707C55.0052 106.066 54.6559 106.481 54.3727 106.953C54.1084 107.406 53.9762 107.85 53.9762 108.284V112.306C53.7686 112.306 53.6175 112.334 53.5231 112.391C53.4287 112.428 53.3438 112.476 53.2682 112.532C53.2116 112.589 53.1455 112.636 53.07 112.674C52.9945 112.712 52.8906 112.731 52.7585 112.731H52.7018C52.683 112.731 52.6641 112.721 52.6452 112.702C52.5697 112.683 52.5036 112.646 52.447 112.589C52.3903 112.513 52.362 112.466 52.362 112.447L51.5124 107.18Z" fill="#D400FF"/>
<path d="M306.307 110.975V110.38C306.307 110.135 306.326 109.898 306.363 109.672C306.401 109.445 306.477 109.247 306.59 109.077C306.703 108.907 306.864 108.822 307.071 108.822V108.851H307.156L307.723 111.031C307.723 111.107 307.761 111.163 307.836 111.201C307.912 111.239 307.987 111.277 308.063 111.315C308.157 111.333 308.242 111.343 308.318 111.343C308.412 111.343 308.487 111.343 308.544 111.343C308.582 111.343 308.629 111.343 308.686 111.343C308.761 111.324 308.808 111.315 308.827 111.315C308.941 111.296 309.158 111.248 309.479 111.173C309.8 111.079 310.13 110.994 310.47 110.918C310.829 110.843 311.159 110.767 311.461 110.691C311.782 110.597 312.009 110.54 312.141 110.522C312.235 110.371 312.377 110.238 312.566 110.125C312.754 109.993 312.943 109.87 313.132 109.757C313.321 109.644 313.481 109.521 313.613 109.389C313.746 109.257 313.812 109.087 313.812 108.879C313.812 108.407 313.689 108.029 313.444 107.746C313.217 107.463 312.915 107.255 312.537 107.123C312.179 106.972 311.792 106.868 311.376 106.812C310.961 106.755 310.564 106.698 310.187 106.642C310.036 106.623 309.79 106.594 309.45 106.557C309.129 106.5 308.761 106.443 308.346 106.387C307.931 106.33 307.496 106.273 307.043 106.217C306.59 106.141 306.146 106.085 305.712 106.047C305.297 105.99 304.919 105.943 304.579 105.905C304.258 105.868 304.022 105.839 303.871 105.82C303.758 105.745 303.635 105.613 303.503 105.424C303.371 105.235 303.305 105.084 303.305 104.971C303.305 104.65 303.475 104.357 303.815 104.093C304.173 103.81 304.617 103.555 305.146 103.328C305.674 103.102 306.269 102.903 306.93 102.733C307.61 102.564 308.27 102.412 308.912 102.28C309.573 102.148 310.177 102.054 310.725 101.997C311.291 101.94 311.725 101.912 312.028 101.912C312.254 101.912 312.462 101.988 312.651 102.139C312.858 102.29 312.962 102.507 312.962 102.79C312.962 103.017 312.896 103.187 312.764 103.3C312.651 103.394 312.5 103.46 312.311 103.498C312.141 103.517 311.961 103.536 311.773 103.555C311.603 103.555 311.442 103.564 311.291 103.583C310.989 103.64 310.602 103.715 310.13 103.81C309.677 103.904 309.224 103.998 308.771 104.093C308.318 104.187 307.94 104.263 307.638 104.319L307.156 104.433V104.744C307.515 104.744 307.968 104.754 308.516 104.773C309.063 104.791 309.649 104.839 310.272 104.914C310.895 104.99 311.508 105.112 312.112 105.282C312.736 105.433 313.293 105.65 313.783 105.934C314.274 106.198 314.671 106.538 314.973 106.953C315.294 107.35 315.454 107.841 315.454 108.426C315.454 109.219 315.237 109.889 314.803 110.437C314.369 110.984 313.821 111.428 313.16 111.768C312.5 112.107 311.782 112.353 311.008 112.504C310.234 112.655 309.516 112.731 308.856 112.731C308.591 112.731 308.308 112.712 308.006 112.674C307.704 112.617 307.421 112.523 307.156 112.391C306.911 112.259 306.703 112.079 306.533 111.853C306.382 111.626 306.307 111.333 306.307 110.975ZM328.33 106.613C327.763 106.613 327.273 106.717 326.857 106.925C326.461 107.133 326.102 107.387 325.781 107.69C325.46 107.992 325.186 108.331 324.96 108.709C324.733 109.068 324.507 109.408 324.28 109.729C324.053 110.031 323.817 110.286 323.572 110.493C323.327 110.701 323.043 110.805 322.722 110.805C322.496 110.805 322.316 110.71 322.184 110.522C322.071 110.333 321.986 110.135 321.929 109.927C321.684 109.115 321.429 108.246 321.165 107.321C320.919 106.377 320.683 105.424 320.457 104.461C320.23 103.498 320.041 102.535 319.89 101.572C319.739 100.591 319.664 99.656 319.664 98.7686V98.5987C319.664 98.5043 319.664 98.4099 319.664 98.3155C319.683 98.2022 319.692 98.1078 319.692 98.0323V97.8057C319.73 97.6358 319.824 97.5508 319.975 97.5508C320.126 97.532 320.268 97.5225 320.4 97.5225C320.419 97.5225 320.485 97.5225 320.598 97.5225C320.731 97.5225 320.806 97.5225 320.825 97.5225C320.863 97.8057 320.929 98.24 321.023 98.8253C321.118 99.4105 321.231 100.062 321.363 100.779C321.514 101.497 321.665 102.243 321.816 103.017C321.986 103.772 322.156 104.461 322.326 105.084C322.515 105.707 322.704 106.217 322.892 106.613C323.081 107.01 323.26 107.208 323.43 107.208C323.714 107.208 324.044 107.095 324.422 106.868C324.799 106.642 325.196 106.387 325.611 106.104C326.045 105.82 326.498 105.556 326.97 105.311C327.461 105.065 327.971 104.942 328.5 104.942C328.613 104.942 328.764 104.952 328.953 104.971C329.142 104.971 329.33 104.98 329.519 104.999C329.727 105.018 329.916 105.046 330.086 105.084C330.274 105.122 330.397 105.178 330.454 105.254L332.974 107.746C333.125 107.897 333.258 108.171 333.371 108.567C333.484 108.964 333.579 109.389 333.654 109.842C333.73 110.295 333.777 110.729 333.796 111.145C333.815 111.541 333.824 111.853 333.824 112.079C333.824 112.343 333.739 112.523 333.569 112.617C333.399 112.693 333.201 112.731 332.974 112.731C332.672 112.731 332.455 112.579 332.323 112.277C332.191 111.975 332.068 111.598 331.955 111.145C331.86 110.673 331.747 110.182 331.615 109.672C331.483 109.143 331.294 108.652 331.049 108.199C330.803 107.727 330.463 107.35 330.029 107.066C329.614 106.764 329.047 106.613 328.33 106.613ZM345.652 111.315C345.35 111.315 345.029 111.362 344.689 111.456C344.368 111.532 344.047 111.626 343.726 111.739C343.405 111.853 343.065 111.956 342.706 112.051C342.367 112.126 342.017 112.164 341.659 112.164C341.111 112.164 340.582 112.079 340.073 111.909C339.563 111.739 339.11 111.484 338.713 111.145C338.336 110.805 338.034 110.399 337.807 109.927C337.58 109.436 337.467 108.888 337.467 108.284C337.467 107.756 337.628 107.265 337.949 106.812C338.288 106.358 338.704 105.981 339.195 105.679C339.686 105.377 340.214 105.141 340.781 104.971C341.347 104.801 341.857 104.716 342.31 104.716C342.518 104.716 342.772 104.735 343.075 104.773C343.395 104.791 343.735 104.839 344.094 104.914C344.472 104.971 344.849 105.056 345.227 105.169C345.604 105.263 345.944 105.396 346.246 105.565C346.567 105.735 346.832 105.934 347.039 106.16C347.266 106.368 347.398 106.613 347.436 106.897C347.436 106.991 347.417 107.161 347.379 107.406C347.341 107.633 347.313 107.878 347.294 108.143C347.275 108.407 347.247 108.662 347.209 108.907C347.19 109.134 347.172 109.304 347.153 109.417V109.587C347.153 110.002 347.247 110.314 347.436 110.522C347.625 110.729 347.851 110.88 348.116 110.975C348.399 111.05 348.691 111.088 348.993 111.088H349.9C350.183 111.088 350.362 111.088 350.438 111.088C350.513 111.069 350.561 111.06 350.579 111.06C350.617 111.06 350.664 111.06 350.721 111.06C350.797 111.041 350.985 111.031 351.287 111.031C351.533 111.031 351.722 111.079 351.854 111.173C351.986 111.267 352.052 111.466 352.052 111.768C352.052 112.089 351.948 112.315 351.741 112.447C351.533 112.579 351.287 112.664 351.004 112.702C350.721 112.759 350.438 112.778 350.155 112.759C349.871 112.74 349.654 112.731 349.503 112.731C349.069 112.731 348.654 112.655 348.257 112.504C347.88 112.353 347.53 112.192 347.209 112.023C346.888 111.834 346.596 111.673 346.331 111.541C346.067 111.39 345.84 111.315 345.652 111.315ZM339.138 108.567C339.138 109.021 339.232 109.389 339.421 109.672C339.629 109.936 339.874 110.135 340.158 110.267C340.46 110.38 340.79 110.455 341.149 110.493C341.507 110.512 341.857 110.522 342.197 110.522C342.329 110.522 342.546 110.512 342.848 110.493C343.169 110.474 343.499 110.437 343.839 110.38C344.179 110.304 344.481 110.21 344.745 110.097C345.029 109.983 345.189 109.842 345.227 109.672L345.793 107.463C345.831 107.312 345.793 107.18 345.68 107.066C345.567 106.953 345.406 106.859 345.199 106.783C345.01 106.708 344.793 106.642 344.547 106.585C344.321 106.528 344.094 106.481 343.867 106.443C343.641 106.406 343.433 106.377 343.244 106.358C343.075 106.34 342.971 106.33 342.933 106.33C342.593 106.33 342.197 106.368 341.743 106.443C341.309 106.5 340.894 106.613 340.497 106.783C340.12 106.934 339.799 107.151 339.534 107.435C339.27 107.718 339.138 108.095 339.138 108.567ZM365.267 111.853C364.644 111.853 364.031 111.909 363.427 112.023C362.841 112.117 362.247 112.164 361.642 112.164C361.227 112.164 360.774 112.164 360.283 112.164C359.811 112.145 359.33 112.107 358.839 112.051C358.367 111.975 357.904 111.871 357.451 111.739C356.998 111.588 356.592 111.39 356.233 111.145C355.893 110.88 355.61 110.559 355.384 110.182C355.176 109.804 355.072 109.332 355.072 108.766C355.072 108.086 355.252 107.501 355.61 107.01C355.988 106.519 356.441 106.132 356.97 105.849C357.517 105.547 358.112 105.329 358.754 105.197C359.415 105.046 360.047 104.971 360.651 104.971C361.444 104.971 362.247 105.103 363.058 105.367C363.889 105.613 364.654 105.943 365.352 106.358V101.119C365.352 100.874 365.39 100.723 365.466 100.666C365.56 100.591 365.683 100.553 365.834 100.553C366.098 100.553 366.325 100.817 366.514 101.346C366.702 101.856 366.863 102.516 366.995 103.328C367.127 104.14 367.231 105.037 367.307 106.019C367.401 107 367.467 107.944 367.505 108.851C367.543 109.757 367.561 110.569 367.561 111.286C367.58 111.985 367.59 112.485 367.59 112.787C367.288 112.787 367.023 112.74 366.797 112.646C366.589 112.532 366.4 112.419 366.23 112.306C366.079 112.192 365.928 112.089 365.777 111.994C365.626 111.9 365.456 111.853 365.267 111.853ZM356.743 108.766C356.743 109.143 356.847 109.455 357.055 109.7C357.262 109.927 357.536 110.116 357.876 110.267C358.216 110.418 358.593 110.531 359.009 110.607C359.424 110.682 359.839 110.739 360.255 110.776C360.67 110.795 361.067 110.805 361.444 110.805H362.379C362.417 110.805 362.586 110.814 362.889 110.833C363.21 110.852 363.549 110.852 363.908 110.833C364.267 110.795 364.597 110.739 364.899 110.663C365.201 110.569 365.352 110.418 365.352 110.21V107.18C365.145 107.387 364.956 107.538 364.786 107.633C364.635 107.727 364.437 107.774 364.191 107.774C364.172 107.774 364.069 107.718 363.88 107.605C363.691 107.472 363.436 107.34 363.115 107.208C362.813 107.057 362.454 106.925 362.039 106.812C361.642 106.679 361.208 106.613 360.736 106.613C360.415 106.613 360.028 106.651 359.575 106.727C359.122 106.783 358.678 106.897 358.244 107.066C357.829 107.218 357.47 107.435 357.168 107.718C356.885 108.001 356.743 108.35 356.743 108.766ZM372.111 107.718C372.111 107.076 372.29 106.453 372.649 105.849C373.008 105.245 373.461 104.716 374.008 104.263C374.575 103.81 375.188 103.451 375.849 103.187C376.529 102.922 377.171 102.79 377.775 102.79C378.266 102.79 378.747 102.856 379.219 102.988C379.71 103.102 380.144 103.29 380.522 103.555C380.9 103.819 381.202 104.149 381.428 104.546C381.674 104.924 381.796 105.377 381.796 105.905C381.796 106.151 381.777 106.349 381.74 106.5C381.721 106.632 381.664 106.755 381.57 106.868C381.475 106.963 381.353 107.057 381.202 107.151C381.069 107.227 380.9 107.331 380.692 107.463C380.579 107.482 380.409 107.529 380.182 107.605C379.956 107.661 379.691 107.727 379.389 107.803C379.106 107.878 378.804 107.954 378.483 108.029C378.162 108.105 377.85 108.18 377.548 108.256C377.265 108.331 377.01 108.398 376.784 108.454C376.557 108.511 376.387 108.549 376.274 108.567C376.217 108.586 376.095 108.605 375.906 108.624C375.717 108.643 375.509 108.671 375.283 108.709C375.075 108.728 374.877 108.756 374.688 108.794C374.499 108.813 374.386 108.832 374.348 108.851C374.291 108.87 374.225 108.917 374.15 108.992C374.093 109.049 374.065 109.087 374.065 109.106C374.065 109.483 374.169 109.804 374.376 110.068C374.584 110.314 374.848 110.522 375.169 110.691C375.49 110.861 375.849 110.994 376.246 111.088C376.661 111.163 377.067 111.23 377.463 111.286C377.86 111.324 378.228 111.343 378.568 111.343C378.908 111.343 379.181 111.343 379.389 111.343C380.333 111.343 381.258 111.296 382.164 111.201C383.071 111.088 383.996 111.031 384.94 111.031V111.258C384.94 111.371 384.921 111.494 384.883 111.626C384.864 111.739 384.827 111.853 384.77 111.966C384.713 112.06 384.638 112.117 384.543 112.136C383.826 112.287 383.184 112.41 382.618 112.504C382.07 112.579 381.551 112.636 381.06 112.674C380.569 112.693 380.059 112.702 379.531 112.702C379.002 112.721 378.417 112.731 377.775 112.731H377.293C377.086 112.731 376.859 112.721 376.614 112.702C376.368 112.702 376.132 112.702 375.906 112.702H375.424C374.839 112.551 374.329 112.315 373.895 111.994C373.48 111.654 373.14 111.258 372.875 110.805C372.611 110.352 372.413 109.861 372.281 109.332C372.167 108.803 372.111 108.265 372.111 107.718ZM378.455 104.376C378.209 104.376 377.926 104.404 377.605 104.461C377.303 104.499 376.982 104.574 376.642 104.688C376.321 104.782 376 104.914 375.679 105.084C375.358 105.235 375.075 105.424 374.83 105.65C374.584 105.858 374.376 106.094 374.206 106.358C374.055 106.623 373.98 106.915 373.98 107.236H375.141C375.556 107.236 375.981 107.218 376.415 107.18C376.85 107.142 377.275 107.085 377.69 107.01C378.105 106.915 378.464 106.783 378.766 106.613C379.087 106.425 379.342 106.189 379.531 105.905C379.738 105.622 379.842 105.273 379.842 104.857V104.716L379.559 104.433C379.521 104.433 379.446 104.433 379.332 104.433C379.238 104.414 379.134 104.404 379.021 104.404C378.908 104.385 378.794 104.376 378.681 104.376C378.587 104.376 378.511 104.376 378.455 104.376ZM391.557 110.975V110.38C391.557 110.135 391.576 109.898 391.613 109.672C391.651 109.445 391.727 109.247 391.84 109.077C391.953 108.907 392.114 108.822 392.321 108.822V108.851H392.406L392.973 111.031C392.973 111.107 393.01 111.163 393.086 111.201C393.161 111.239 393.237 111.277 393.312 111.315C393.407 111.333 393.492 111.343 393.567 111.343C393.662 111.343 393.737 111.343 393.794 111.343C393.832 111.343 393.879 111.343 393.936 111.343C394.011 111.324 394.058 111.315 394.077 111.315C394.19 111.296 394.408 111.248 394.729 111.173C395.049 111.079 395.38 110.994 395.72 110.918C396.078 110.843 396.409 110.767 396.711 110.691C397.032 110.597 397.258 110.54 397.391 110.522C397.485 110.371 397.627 110.238 397.815 110.125C398.004 109.993 398.193 109.87 398.382 109.757C398.571 109.644 398.731 109.521 398.863 109.389C398.995 109.257 399.062 109.087 399.062 108.879C399.062 108.407 398.939 108.029 398.693 107.746C398.467 107.463 398.165 107.255 397.787 107.123C397.428 106.972 397.041 106.868 396.626 106.812C396.211 106.755 395.814 106.698 395.437 106.642C395.285 106.623 395.04 106.594 394.7 106.557C394.379 106.5 394.011 106.443 393.596 106.387C393.18 106.33 392.746 106.273 392.293 106.217C391.84 106.141 391.396 106.085 390.962 106.047C390.547 105.99 390.169 105.943 389.829 105.905C389.508 105.868 389.272 105.839 389.121 105.82C389.008 105.745 388.885 105.613 388.753 105.424C388.621 105.235 388.555 105.084 388.555 104.971C388.555 104.65 388.725 104.357 389.064 104.093C389.423 103.81 389.867 103.555 390.396 103.328C390.924 103.102 391.519 102.903 392.18 102.733C392.859 102.564 393.52 102.412 394.162 102.28C394.823 102.148 395.427 102.054 395.975 101.997C396.541 101.94 396.975 101.912 397.277 101.912C397.504 101.912 397.712 101.988 397.9 102.139C398.108 102.29 398.212 102.507 398.212 102.79C398.212 103.017 398.146 103.187 398.014 103.3C397.9 103.394 397.749 103.46 397.561 103.498C397.391 103.517 397.211 103.536 397.022 103.555C396.853 103.555 396.692 103.564 396.541 103.583C396.239 103.64 395.852 103.715 395.38 103.81C394.927 103.904 394.474 103.998 394.021 104.093C393.567 104.187 393.19 104.263 392.888 104.319L392.406 104.433V104.744C392.765 104.744 393.218 104.754 393.766 104.773C394.313 104.791 394.898 104.839 395.521 104.914C396.145 104.99 396.758 105.112 397.362 105.282C397.985 105.433 398.542 105.65 399.033 105.934C399.524 106.198 399.921 106.538 400.223 106.953C400.544 107.35 400.704 107.841 400.704 108.426C400.704 109.219 400.487 109.889 400.053 110.437C399.618 110.984 399.071 111.428 398.41 111.768C397.749 112.107 397.032 112.353 396.258 112.504C395.484 112.655 394.766 112.731 394.105 112.731C393.841 112.731 393.558 112.712 393.256 112.674C392.954 112.617 392.671 112.523 392.406 112.391C392.161 112.259 391.953 112.079 391.783 111.853C391.632 111.626 391.557 111.333 391.557 110.975Z" fill="black"/>
<path d="M80.6336 112.447C80.5014 112.07 80.3787 111.664 80.2654 111.23C80.171 110.776 80.0861 110.314 80.0105 109.842C79.9539 109.37 79.9067 108.907 79.8689 108.454C79.8312 108.001 79.8123 107.576 79.8123 107.18C79.8123 107.123 79.8217 107.019 79.8406 106.868C79.8595 106.698 79.8784 106.528 79.8973 106.358C79.935 106.189 79.9728 106.028 80.0105 105.877C80.0483 105.707 80.0766 105.594 80.0955 105.537C80.1144 105.518 80.1993 105.499 80.3504 105.481C80.5014 105.462 80.5958 105.452 80.6336 105.452C80.879 105.452 81.0773 105.584 81.2283 105.849C81.3794 106.113 81.5115 106.453 81.6248 106.868C81.7381 107.284 81.8136 107.746 81.8514 108.256C81.908 108.747 81.9552 109.228 81.993 109.7C82.0307 110.153 82.0496 110.559 82.0496 110.918C82.0496 111.277 82.0496 111.522 82.0496 111.654C82.0496 111.711 82.0496 111.805 82.0496 111.938C82.0685 112.051 82.0685 112.174 82.0496 112.306C82.0307 112.419 81.9835 112.513 81.908 112.589C81.8514 112.664 81.7475 112.702 81.5965 112.702H81.4832C81.4454 112.702 81.3888 112.693 81.3133 112.674C81.2378 112.636 81.1528 112.608 81.0584 112.589C80.964 112.551 80.879 112.523 80.8035 112.504C80.728 112.485 80.6714 112.466 80.6336 112.447ZM80.3221 99.9581C80.3221 99.4861 80.6242 99.1368 81.2283 98.9102C81.3605 98.8536 81.4738 98.8725 81.5682 98.9669C81.6814 99.0613 81.7664 99.184 81.823 99.335C81.8986 99.4861 81.9458 99.6465 81.9646 99.8165C82.0024 99.9675 82.0213 100.081 82.0213 100.156C82.0213 100.27 81.993 100.364 81.9363 100.44C81.8797 100.496 81.8042 100.534 81.7098 100.553C81.6342 100.572 81.5493 100.581 81.4549 100.581H81.2283C80.964 100.581 80.7469 100.553 80.577 100.496C80.407 100.44 80.3221 100.26 80.3221 99.9581ZM96.1712 111.853C95.5482 111.853 94.9346 111.909 94.3304 112.023C93.7451 112.117 93.1504 112.164 92.5462 112.164C92.1309 112.164 91.6778 112.164 91.1869 112.164C90.7149 112.145 90.2334 112.107 89.7425 112.051C89.2705 111.975 88.808 111.871 88.3548 111.739C87.9017 111.588 87.4958 111.39 87.1371 111.145C86.7972 110.88 86.514 110.559 86.2875 110.182C86.0798 109.804 85.9759 109.332 85.9759 108.766C85.9759 108.086 86.1553 107.501 86.514 107.01C86.8916 106.519 87.3448 106.132 87.8734 105.849C88.4209 105.547 89.0157 105.329 89.6576 105.197C90.3184 105.046 90.9509 104.971 91.555 104.971C92.348 104.971 93.1504 105.103 93.9623 105.367C94.793 105.613 95.5576 105.943 96.2562 106.358V101.119C96.2562 100.874 96.294 100.723 96.3695 100.666C96.4639 100.591 96.5866 100.553 96.7377 100.553C97.002 100.553 97.2285 100.817 97.4173 101.346C97.6061 101.856 97.7666 102.516 97.8988 103.328C98.0309 104.14 98.1348 105.037 98.2103 106.019C98.3047 107 98.3708 107.944 98.4086 108.851C98.4463 109.757 98.4652 110.569 98.4652 111.286C98.4841 111.985 98.4935 112.485 98.4935 112.787C98.1914 112.787 97.9271 112.74 97.7005 112.646C97.4929 112.532 97.3041 112.419 97.1341 112.306C96.9831 112.192 96.8321 112.089 96.681 111.994C96.53 111.9 96.3601 111.853 96.1712 111.853ZM87.6468 108.766C87.6468 109.143 87.7507 109.455 87.9584 109.7C88.166 109.927 88.4398 110.116 88.7796 110.267C89.1195 110.418 89.4971 110.531 89.9125 110.607C90.3278 110.682 90.7432 110.739 91.1586 110.776C91.5739 110.795 91.9704 110.805 92.348 110.805H93.2826C93.3203 110.805 93.4903 110.814 93.7923 110.833C94.1133 110.852 94.4532 110.852 94.8119 110.833C95.1706 110.795 95.501 110.739 95.8031 110.663C96.1052 110.569 96.2562 110.418 96.2562 110.21V107.18C96.0485 107.387 95.8597 107.538 95.6898 107.633C95.5388 107.727 95.3405 107.774 95.0951 107.774C95.0762 107.774 94.9724 107.718 94.7836 107.605C94.5948 107.472 94.3399 107.34 94.0189 107.208C93.7168 107.057 93.3581 106.925 92.9427 106.812C92.5462 106.679 92.112 106.613 91.64 106.613C91.319 106.613 90.932 106.651 90.4789 106.727C90.0257 106.783 89.5821 106.897 89.1478 107.066C88.7324 107.218 88.3737 107.435 88.0716 107.718C87.7884 108.001 87.6468 108.35 87.6468 108.766ZM103.015 107.718C103.015 107.076 103.194 106.453 103.553 105.849C103.911 105.245 104.365 104.716 104.912 104.263C105.478 103.81 106.092 103.451 106.753 103.187C107.433 102.922 108.074 102.79 108.679 102.79C109.17 102.79 109.651 102.856 110.123 102.988C110.614 103.102 111.048 103.29 111.426 103.555C111.803 103.819 112.105 104.149 112.332 104.546C112.577 104.924 112.7 105.377 112.7 105.905C112.7 106.151 112.681 106.349 112.643 106.5C112.625 106.632 112.568 106.755 112.474 106.868C112.379 106.963 112.256 107.057 112.105 107.151C111.973 107.227 111.803 107.331 111.596 107.463C111.482 107.482 111.312 107.529 111.086 107.605C110.859 107.661 110.595 107.727 110.293 107.803C110.01 107.878 109.708 107.954 109.387 108.029C109.066 108.105 108.754 108.18 108.452 108.256C108.169 108.331 107.914 108.398 107.687 108.454C107.461 108.511 107.291 108.549 107.178 108.567C107.121 108.586 106.998 108.605 106.809 108.624C106.621 108.643 106.413 108.671 106.186 108.709C105.979 108.728 105.781 108.756 105.592 108.794C105.403 108.813 105.29 108.832 105.252 108.851C105.195 108.87 105.129 108.917 105.054 108.992C104.997 109.049 104.969 109.087 104.969 109.106C104.969 109.483 105.073 109.804 105.28 110.068C105.488 110.314 105.752 110.522 106.073 110.691C106.394 110.861 106.753 110.994 107.149 111.088C107.565 111.163 107.971 111.23 108.367 111.286C108.764 111.324 109.132 111.343 109.472 111.343C109.811 111.343 110.085 111.343 110.293 111.343C111.237 111.343 112.162 111.296 113.068 111.201C113.975 111.088 114.9 111.031 115.844 111.031V111.258C115.844 111.371 115.825 111.494 115.787 111.626C115.768 111.739 115.73 111.853 115.674 111.966C115.617 112.06 115.542 112.117 115.447 112.136C114.73 112.287 114.088 112.41 113.521 112.504C112.974 112.579 112.455 112.636 111.964 112.674C111.473 112.693 110.963 112.702 110.434 112.702C109.906 112.721 109.321 112.731 108.679 112.731H108.197C107.99 112.731 107.763 112.721 107.518 112.702C107.272 112.702 107.036 112.702 106.809 112.702H106.328C105.743 112.551 105.233 112.315 104.799 111.994C104.383 111.654 104.044 111.258 103.779 110.805C103.515 110.352 103.317 109.861 103.184 109.332C103.071 108.803 103.015 108.265 103.015 107.718ZM109.358 104.376C109.113 104.376 108.83 104.404 108.509 104.461C108.207 104.499 107.886 104.574 107.546 104.688C107.225 104.782 106.904 104.914 106.583 105.084C106.262 105.235 105.979 105.424 105.733 105.65C105.488 105.858 105.28 106.094 105.11 106.358C104.959 106.623 104.884 106.915 104.884 107.236H106.045C106.46 107.236 106.885 107.218 107.319 107.18C107.754 107.142 108.178 107.085 108.594 107.01C109.009 106.915 109.368 106.783 109.67 106.613C109.991 106.425 110.246 106.189 110.434 105.905C110.642 105.622 110.746 105.273 110.746 104.857V104.716L110.463 104.433C110.425 104.433 110.35 104.433 110.236 104.433C110.142 104.414 110.038 104.404 109.925 104.404C109.811 104.385 109.698 104.376 109.585 104.376C109.49 104.376 109.415 104.376 109.358 104.376ZM127.87 111.315C127.568 111.315 127.247 111.362 126.907 111.456C126.586 111.532 126.265 111.626 125.944 111.739C125.623 111.853 125.283 111.956 124.924 112.051C124.584 112.126 124.235 112.164 123.876 112.164C123.329 112.164 122.8 112.079 122.291 111.909C121.781 111.739 121.328 111.484 120.931 111.145C120.554 110.805 120.251 110.399 120.025 109.927C119.798 109.436 119.685 108.888 119.685 108.284C119.685 107.756 119.846 107.265 120.166 106.812C120.506 106.358 120.922 105.981 121.413 105.679C121.903 105.377 122.432 105.141 122.999 104.971C123.565 104.801 124.075 104.716 124.528 104.716C124.735 104.716 124.99 104.735 125.292 104.773C125.613 104.791 125.953 104.839 126.312 104.914C126.69 104.971 127.067 105.056 127.445 105.169C127.822 105.263 128.162 105.396 128.464 105.565C128.785 105.735 129.05 105.934 129.257 106.16C129.484 106.368 129.616 106.613 129.654 106.897C129.654 106.991 129.635 107.161 129.597 107.406C129.559 107.633 129.531 107.878 129.512 108.143C129.493 108.407 129.465 108.662 129.427 108.907C129.408 109.134 129.389 109.304 129.371 109.417V109.587C129.371 110.002 129.465 110.314 129.654 110.522C129.843 110.729 130.069 110.88 130.333 110.975C130.617 111.05 130.909 111.088 131.211 111.088H132.118C132.401 111.088 132.58 111.088 132.656 111.088C132.731 111.069 132.778 111.06 132.797 111.06C132.835 111.06 132.882 111.06 132.939 111.06C133.014 111.041 133.203 111.031 133.505 111.031C133.751 111.031 133.94 111.079 134.072 111.173C134.204 111.267 134.27 111.466 134.27 111.768C134.27 112.089 134.166 112.315 133.958 112.447C133.751 112.579 133.505 112.664 133.222 112.702C132.939 112.759 132.656 112.778 132.373 112.759C132.089 112.74 131.872 112.731 131.721 112.731C131.287 112.731 130.872 112.655 130.475 112.504C130.097 112.353 129.748 112.192 129.427 112.023C129.106 111.834 128.814 111.673 128.549 111.541C128.285 111.39 128.058 111.315 127.87 111.315ZM121.356 108.567C121.356 109.021 121.45 109.389 121.639 109.672C121.847 109.936 122.092 110.135 122.375 110.267C122.678 110.38 123.008 110.455 123.367 110.493C123.725 110.512 124.075 110.522 124.415 110.522C124.547 110.522 124.764 110.512 125.066 110.493C125.387 110.474 125.717 110.437 126.057 110.38C126.397 110.304 126.699 110.21 126.963 110.097C127.247 109.983 127.407 109.842 127.445 109.672L128.011 107.463C128.049 107.312 128.011 107.18 127.898 107.066C127.785 106.953 127.624 106.859 127.416 106.783C127.228 106.708 127.011 106.642 126.765 106.585C126.539 106.528 126.312 106.481 126.085 106.443C125.859 106.406 125.651 106.377 125.462 106.358C125.292 106.34 125.189 106.33 125.151 106.33C124.811 106.33 124.415 106.368 123.961 106.443C123.527 106.5 123.112 106.613 122.715 106.783C122.338 106.934 122.017 107.151 121.752 107.435C121.488 107.718 121.356 108.095 121.356 108.567ZM140.065 110.975V110.38C140.065 110.135 140.084 109.898 140.122 109.672C140.16 109.445 140.235 109.247 140.349 109.077C140.462 108.907 140.622 108.822 140.83 108.822V108.851H140.915L141.481 111.031C141.481 111.107 141.519 111.163 141.595 111.201C141.67 111.239 141.746 111.277 141.821 111.315C141.916 111.333 142.001 111.343 142.076 111.343C142.171 111.343 142.246 111.343 142.303 111.343C142.341 111.343 142.388 111.343 142.444 111.343C142.52 111.324 142.567 111.315 142.586 111.315C142.699 111.296 142.916 111.248 143.237 111.173C143.558 111.079 143.889 110.994 144.229 110.918C144.587 110.843 144.918 110.767 145.22 110.691C145.541 110.597 145.767 110.54 145.899 110.522C145.994 110.371 146.135 110.238 146.324 110.125C146.513 109.993 146.702 109.87 146.891 109.757C147.079 109.644 147.24 109.521 147.372 109.389C147.504 109.257 147.57 109.087 147.57 108.879C147.57 108.407 147.448 108.029 147.202 107.746C146.976 107.463 146.674 107.255 146.296 107.123C145.937 106.972 145.55 106.868 145.135 106.812C144.719 106.755 144.323 106.698 143.945 106.642C143.794 106.623 143.549 106.594 143.209 106.557C142.888 106.5 142.52 106.443 142.105 106.387C141.689 106.33 141.255 106.273 140.802 106.217C140.349 106.141 139.905 106.085 139.471 106.047C139.055 105.99 138.678 105.943 138.338 105.905C138.017 105.868 137.781 105.839 137.63 105.82C137.517 105.745 137.394 105.613 137.262 105.424C137.13 105.235 137.064 105.084 137.064 104.971C137.064 104.65 137.233 104.357 137.573 104.093C137.932 103.81 138.376 103.555 138.904 103.328C139.433 103.102 140.028 102.903 140.689 102.733C141.368 102.564 142.029 102.412 142.671 102.28C143.332 102.148 143.936 102.054 144.483 101.997C145.05 101.94 145.484 101.912 145.786 101.912C146.013 101.912 146.22 101.988 146.409 102.139C146.617 102.29 146.721 102.507 146.721 102.79C146.721 103.017 146.655 103.187 146.523 103.3C146.409 103.394 146.258 103.46 146.069 103.498C145.899 103.517 145.72 103.536 145.531 103.555C145.361 103.555 145.201 103.564 145.05 103.583C144.748 103.64 144.361 103.715 143.889 103.81C143.436 103.904 142.982 103.998 142.529 104.093C142.076 104.187 141.699 104.263 141.397 104.319L140.915 104.433V104.744C141.274 104.744 141.727 104.754 142.274 104.773C142.822 104.791 143.407 104.839 144.03 104.914C144.653 104.99 145.267 105.112 145.871 105.282C146.494 105.433 147.051 105.65 147.542 105.934C148.033 106.198 148.429 106.538 148.731 106.953C149.052 107.35 149.213 107.841 149.213 108.426C149.213 109.219 148.996 109.889 148.562 110.437C148.127 110.984 147.58 111.428 146.919 111.768C146.258 112.107 145.541 112.353 144.767 112.504C143.993 112.655 143.275 112.731 142.614 112.731C142.35 112.731 142.067 112.712 141.765 112.674C141.463 112.617 141.179 112.523 140.915 112.391C140.67 112.259 140.462 112.079 140.292 111.853C140.141 111.626 140.065 111.333 140.065 110.975Z" fill="#673AB7"/>
<path d="M174.029 111.315C173.727 111.315 173.406 111.362 173.067 111.456C172.746 111.532 172.425 111.626 172.104 111.739C171.783 111.853 171.443 111.956 171.084 112.051C170.744 112.126 170.395 112.164 170.036 112.164C169.489 112.164 168.96 112.079 168.45 111.909C167.941 111.739 167.487 111.484 167.091 111.145C166.713 110.805 166.411 110.399 166.185 109.927C165.958 109.436 165.845 108.888 165.845 108.284C165.845 107.756 166.005 107.265 166.326 106.812C166.666 106.358 167.082 105.981 167.572 105.679C168.063 105.377 168.592 105.141 169.158 104.971C169.725 104.801 170.235 104.716 170.688 104.716C170.895 104.716 171.15 104.735 171.452 104.773C171.773 104.791 172.113 104.839 172.472 104.914C172.849 104.971 173.227 105.056 173.605 105.169C173.982 105.263 174.322 105.396 174.624 105.565C174.945 105.735 175.209 105.934 175.417 106.16C175.644 106.368 175.776 106.613 175.814 106.897C175.814 106.991 175.795 107.161 175.757 107.406C175.719 107.633 175.691 107.878 175.672 108.143C175.653 108.407 175.625 108.662 175.587 108.907C175.568 109.134 175.549 109.304 175.53 109.417V109.587C175.53 110.002 175.625 110.314 175.814 110.522C176.002 110.729 176.229 110.88 176.493 110.975C176.777 111.05 177.069 111.088 177.371 111.088H178.277C178.561 111.088 178.74 111.088 178.816 111.088C178.891 111.069 178.938 111.06 178.957 111.06C178.995 111.06 179.042 111.06 179.099 111.06C179.174 111.041 179.363 111.031 179.665 111.031C179.911 111.031 180.099 111.079 180.232 111.173C180.364 111.267 180.43 111.466 180.43 111.768C180.43 112.089 180.326 112.315 180.118 112.447C179.911 112.579 179.665 112.664 179.382 112.702C179.099 112.759 178.816 112.778 178.532 112.759C178.249 112.74 178.032 112.731 177.881 112.731C177.447 112.731 177.031 112.655 176.635 112.504C176.257 112.353 175.908 112.192 175.587 112.023C175.266 111.834 174.973 111.673 174.709 111.541C174.445 111.39 174.218 111.315 174.029 111.315ZM167.516 108.567C167.516 109.021 167.61 109.389 167.799 109.672C168.007 109.936 168.252 110.135 168.535 110.267C168.837 110.38 169.168 110.455 169.527 110.493C169.885 110.512 170.235 110.522 170.574 110.522C170.707 110.522 170.924 110.512 171.226 110.493C171.547 110.474 171.877 110.437 172.217 110.38C172.557 110.304 172.859 110.21 173.123 110.097C173.406 109.983 173.567 109.842 173.605 109.672L174.171 107.463C174.209 107.312 174.171 107.18 174.058 107.066C173.944 106.953 173.784 106.859 173.576 106.783C173.388 106.708 173.17 106.642 172.925 106.585C172.698 106.528 172.472 106.481 172.245 106.443C172.019 106.406 171.811 106.377 171.622 106.358C171.452 106.34 171.348 106.33 171.311 106.33C170.971 106.33 170.574 106.368 170.121 106.443C169.687 106.5 169.272 106.613 168.875 106.783C168.498 106.934 168.177 107.151 167.912 107.435C167.648 107.718 167.516 108.095 167.516 108.567ZM184.045 107.18C184.026 107.18 183.979 107.151 183.903 107.095C183.828 107.019 183.79 106.953 183.79 106.897C183.771 106.897 183.761 106.878 183.761 106.84V106.698C183.761 106.679 183.771 106.661 183.79 106.642C183.997 106.434 184.167 106.283 184.3 106.189C184.451 106.094 184.649 106.047 184.894 106.047C184.97 106.047 185.036 106.066 185.092 106.104C185.168 106.141 185.225 106.179 185.262 106.217C185.3 106.255 185.338 106.292 185.376 106.33C185.432 106.368 185.489 106.387 185.546 106.387C185.602 106.387 185.716 106.302 185.885 106.132C186.055 105.943 186.282 105.717 186.565 105.452C186.848 105.188 187.198 104.905 187.613 104.603C188.028 104.282 188.491 103.989 189.001 103.725C189.529 103.46 190.096 103.243 190.7 103.073C191.323 102.885 192.003 102.79 192.739 102.79H192.909C192.984 102.809 193.135 102.847 193.362 102.903C193.607 102.941 193.862 102.998 194.127 103.073C194.391 103.13 194.636 103.187 194.863 103.243C195.108 103.281 195.278 103.309 195.373 103.328C195.392 103.347 195.429 103.385 195.486 103.441C195.543 103.479 195.599 103.526 195.656 103.583C195.713 103.621 195.76 103.668 195.798 103.725C195.854 103.781 195.892 103.829 195.911 103.866C195.911 103.885 195.92 103.913 195.939 103.951C195.939 103.951 195.939 103.961 195.939 103.98C195.958 103.998 195.967 104.008 195.967 104.008L195.939 104.065C195.939 104.065 195.939 104.074 195.939 104.093C195.92 104.112 195.911 104.131 195.911 104.149C195.892 104.206 195.845 104.272 195.769 104.348C195.694 104.404 195.656 104.433 195.656 104.433H190.672C190.256 104.433 189.803 104.555 189.312 104.801C188.84 105.027 188.387 105.329 187.953 105.707C187.537 106.066 187.188 106.481 186.905 106.953C186.641 107.406 186.509 107.85 186.509 108.284V112.306C186.301 112.306 186.15 112.334 186.055 112.391C185.961 112.428 185.876 112.476 185.801 112.532C185.744 112.589 185.678 112.636 185.602 112.674C185.527 112.712 185.423 112.731 185.291 112.731H185.234C185.215 112.731 185.196 112.721 185.177 112.702C185.102 112.683 185.036 112.646 184.979 112.589C184.923 112.513 184.894 112.466 184.894 112.447L184.045 107.18ZM199.894 107.718C199.894 107.076 200.073 106.453 200.432 105.849C200.791 105.245 201.244 104.716 201.791 104.263C202.358 103.81 202.971 103.451 203.632 103.187C204.312 102.922 204.954 102.79 205.558 102.79C206.049 102.79 206.53 102.856 207.002 102.988C207.493 103.102 207.927 103.29 208.305 103.555C208.683 103.819 208.985 104.149 209.211 104.546C209.457 104.924 209.579 105.377 209.579 105.905C209.579 106.151 209.56 106.349 209.523 106.5C209.504 106.632 209.447 106.755 209.353 106.868C209.258 106.963 209.136 107.057 208.985 107.151C208.852 107.227 208.683 107.331 208.475 107.463C208.362 107.482 208.192 107.529 207.965 107.605C207.739 107.661 207.474 107.727 207.172 107.803C206.889 107.878 206.587 107.954 206.266 108.029C205.945 108.105 205.633 108.18 205.331 108.256C205.048 108.331 204.793 108.398 204.567 108.454C204.34 108.511 204.17 108.549 204.057 108.567C204 108.586 203.878 108.605 203.689 108.624C203.5 108.643 203.292 108.671 203.066 108.709C202.858 108.728 202.66 108.756 202.471 108.794C202.282 108.813 202.169 108.832 202.131 108.851C202.074 108.87 202.008 108.917 201.933 108.992C201.876 109.049 201.848 109.087 201.848 109.106C201.848 109.483 201.952 109.804 202.159 110.068C202.367 110.314 202.631 110.522 202.952 110.691C203.273 110.861 203.632 110.994 204.029 111.088C204.444 111.163 204.85 111.23 205.246 111.286C205.643 111.324 206.011 111.343 206.351 111.343C206.691 111.343 206.964 111.343 207.172 111.343C208.116 111.343 209.041 111.296 209.948 111.201C210.854 111.088 211.779 111.031 212.723 111.031V111.258C212.723 111.371 212.704 111.494 212.666 111.626C212.647 111.739 212.61 111.853 212.553 111.966C212.496 112.06 212.421 112.117 212.326 112.136C211.609 112.287 210.967 112.41 210.401 112.504C209.853 112.579 209.334 112.636 208.843 112.674C208.352 112.693 207.842 112.702 207.314 112.702C206.785 112.721 206.2 112.731 205.558 112.731H205.076C204.869 112.731 204.642 112.721 204.397 112.702C204.151 112.702 203.915 112.702 203.689 112.702H203.207C202.622 112.551 202.112 112.315 201.678 111.994C201.263 111.654 200.923 111.258 200.658 110.805C200.394 110.352 200.196 109.861 200.064 109.332C199.95 108.803 199.894 108.265 199.894 107.718ZM206.238 104.376C205.992 104.376 205.709 104.404 205.388 104.461C205.086 104.499 204.765 104.574 204.425 104.688C204.104 104.782 203.783 104.914 203.462 105.084C203.141 105.235 202.858 105.424 202.613 105.65C202.367 105.858 202.159 106.094 201.99 106.358C201.838 106.623 201.763 106.915 201.763 107.236H202.924C203.339 107.236 203.764 107.218 204.199 107.18C204.633 107.142 205.058 107.085 205.473 107.01C205.888 106.915 206.247 106.783 206.549 106.613C206.87 106.425 207.125 106.189 207.314 105.905C207.521 105.622 207.625 105.273 207.625 104.857V104.716L207.342 104.433C207.304 104.433 207.229 104.433 207.116 104.433C207.021 104.414 206.917 104.404 206.804 104.404C206.691 104.385 206.577 104.376 206.464 104.376C206.37 104.376 206.294 104.376 206.238 104.376Z" fill="#009688"/>
<path d="M221.567 119.188C221.567 118.791 221.576 118.442 221.595 118.14C221.614 117.857 221.699 117.517 221.85 117.12C221.869 117.12 221.897 117.111 221.935 117.092C221.954 117.092 221.973 117.092 221.992 117.092C221.992 117.092 222.001 117.092 222.02 117.092C222.039 117.111 222.058 117.12 222.077 117.12C222.095 117.12 222.114 117.12 222.133 117.12C222.152 117.139 222.199 117.186 222.275 117.262L222.416 117.403C222.246 119.254 222.605 120.632 223.493 121.538C224.38 122.463 225.73 122.926 227.542 122.926C228.373 122.926 229.043 122.746 229.553 122.388C230.082 122.048 230.488 121.595 230.771 121.028C231.073 120.462 231.271 119.82 231.366 119.103C231.479 118.404 231.536 117.696 231.536 116.979C231.536 116.091 231.451 115.213 231.281 114.345C231.13 113.476 230.95 112.617 230.743 111.768C230.535 110.899 230.318 110.05 230.091 109.219C229.884 108.369 229.714 107.51 229.581 106.642C229.581 106.528 229.6 106.425 229.638 106.33C229.695 106.236 229.761 106.151 229.836 106.075C229.912 105.981 230.006 105.915 230.12 105.877C230.233 105.82 230.337 105.792 230.431 105.792C230.677 105.792 230.894 105.934 231.082 106.217C231.29 106.481 231.469 106.84 231.621 107.293C231.79 107.727 231.932 108.218 232.045 108.766C232.159 109.313 232.262 109.851 232.357 110.38C232.47 110.909 232.565 111.409 232.64 111.881C232.716 112.334 232.801 112.693 232.895 112.957V113.637C232.895 113.958 232.895 114.288 232.895 114.628C232.895 114.987 232.895 115.327 232.895 115.648V116.299C232.895 116.96 232.885 117.611 232.867 118.253C232.848 118.914 232.772 119.537 232.64 120.122C232.527 120.726 232.357 121.283 232.13 121.793C231.904 122.303 231.592 122.746 231.196 123.124C230.799 123.502 230.308 123.794 229.723 124.002C229.157 124.21 228.468 124.314 227.656 124.314C226.787 124.314 225.985 124.21 225.248 124.002C224.512 123.813 223.87 123.511 223.323 123.096C222.775 122.699 222.35 122.171 222.048 121.51C221.727 120.868 221.567 120.094 221.567 119.188ZM228.732 101.544C228.732 101.317 228.826 101.148 229.015 101.034C229.204 100.902 229.393 100.836 229.581 100.836C229.789 100.836 229.978 100.93 230.148 101.119C230.337 101.289 230.431 101.478 230.431 101.686C230.431 101.893 230.337 102.082 230.148 102.252C229.959 102.422 229.761 102.507 229.553 102.507C229.289 102.507 229.081 102.403 228.93 102.195C228.798 101.988 228.732 101.771 228.732 101.544ZM246.167 110.21C245.676 110.21 245.185 110.333 244.694 110.578C244.222 110.805 243.731 111.069 243.222 111.371C242.712 111.673 242.183 111.947 241.636 112.192C241.088 112.419 240.531 112.532 239.965 112.532C239.889 112.532 239.776 112.532 239.625 112.532C239.474 112.513 239.304 112.504 239.115 112.504C238.945 112.485 238.785 112.476 238.634 112.476C238.483 112.476 238.379 112.466 238.322 112.447C237.964 112.24 237.671 111.994 237.444 111.711C237.237 111.428 237.067 111.126 236.935 110.805C236.821 110.465 236.736 110.116 236.68 109.757C236.623 109.398 236.595 109.039 236.595 108.681V107.888C236.595 107.548 236.604 107.18 236.623 106.783C236.661 106.387 236.699 105.981 236.736 105.565C236.793 105.15 236.868 104.773 236.963 104.433C237.057 104.074 237.189 103.772 237.359 103.526C237.529 103.281 237.756 103.121 238.039 103.045C238.152 103.007 238.266 103.036 238.379 103.13C238.492 103.224 238.577 103.338 238.634 103.47C238.709 103.583 238.766 103.715 238.804 103.866C238.841 103.998 238.86 104.093 238.86 104.149C238.86 104.206 238.832 104.329 238.775 104.518C238.719 104.706 238.653 104.914 238.577 105.141C238.52 105.348 238.464 105.547 238.407 105.735C238.351 105.924 238.322 106.037 238.322 106.075C238.322 106.094 238.313 106.179 238.294 106.33C238.294 106.462 238.284 106.613 238.266 106.783C238.266 106.953 238.266 107.142 238.266 107.35C238.266 107.538 238.266 107.69 238.266 107.803C238.266 108.048 238.256 108.331 238.237 108.652C238.218 108.954 238.228 109.257 238.266 109.559C238.322 109.861 238.407 110.144 238.52 110.408C238.634 110.673 238.841 110.88 239.144 111.031C239.162 111.031 239.219 111.041 239.313 111.06C239.427 111.06 239.54 111.06 239.653 111.06C239.785 111.06 239.899 111.069 239.993 111.088C240.106 111.088 240.182 111.088 240.22 111.088C241.239 111.088 242.202 110.861 243.108 110.408C244.015 109.955 244.808 109.342 245.487 108.567C245.468 108.454 245.45 108.237 245.431 107.916C245.431 107.595 245.431 107.265 245.431 106.925C245.431 106.566 245.431 106.236 245.431 105.934C245.45 105.613 245.468 105.386 245.487 105.254C245.487 105.141 245.506 105.027 245.544 104.914C245.582 104.782 245.629 104.659 245.686 104.546C245.742 104.433 245.818 104.338 245.912 104.263C246.025 104.187 246.148 104.149 246.28 104.149C246.563 104.149 246.762 104.253 246.875 104.461C246.988 104.669 247.064 104.942 247.102 105.282C247.158 105.622 247.196 106.019 247.215 106.472C247.253 106.906 247.319 107.35 247.413 107.803C247.507 108.256 247.668 108.709 247.895 109.162C248.121 109.596 248.451 109.993 248.886 110.352C249.32 110.691 249.886 110.984 250.585 111.23C251.283 111.456 252.161 111.579 253.219 111.598C253.219 111.635 253.219 111.683 253.219 111.739C253.219 111.796 253.219 111.843 253.219 111.881C253.219 112.164 253.096 112.372 252.851 112.504C252.605 112.617 252.303 112.693 251.944 112.731C251.604 112.768 251.265 112.778 250.925 112.759C250.585 112.74 250.33 112.731 250.16 112.731C249.594 112.731 249.084 112.598 248.631 112.334C248.178 112.07 247.772 111.787 247.413 111.484C247.054 111.163 246.762 110.871 246.535 110.607C246.327 110.342 246.205 110.21 246.167 110.21ZM259.949 110.975V110.38C259.949 110.135 259.968 109.898 260.005 109.672C260.043 109.445 260.119 109.247 260.232 109.077C260.345 108.907 260.506 108.822 260.713 108.822V108.851H260.798L261.365 111.031C261.365 111.107 261.403 111.163 261.478 111.201C261.554 111.239 261.629 111.277 261.705 111.315C261.799 111.333 261.884 111.343 261.96 111.343C262.054 111.343 262.129 111.343 262.186 111.343C262.224 111.343 262.271 111.343 262.328 111.343C262.403 111.324 262.45 111.315 262.469 111.315C262.583 111.296 262.8 111.248 263.121 111.173C263.442 111.079 263.772 110.994 264.112 110.918C264.471 110.843 264.801 110.767 265.103 110.691C265.424 110.597 265.651 110.54 265.783 110.522C265.877 110.371 266.019 110.238 266.208 110.125C266.396 109.993 266.585 109.87 266.774 109.757C266.963 109.644 267.123 109.521 267.255 109.389C267.388 109.257 267.454 109.087 267.454 108.879C267.454 108.407 267.331 108.029 267.085 107.746C266.859 107.463 266.557 107.255 266.179 107.123C265.821 106.972 265.433 106.868 265.018 106.812C264.603 106.755 264.206 106.698 263.829 106.642C263.678 106.623 263.432 106.594 263.092 106.557C262.771 106.5 262.403 106.443 261.988 106.387C261.572 106.33 261.138 106.273 260.685 106.217C260.232 106.141 259.788 106.085 259.354 106.047C258.939 105.99 258.561 105.943 258.221 105.905C257.9 105.868 257.664 105.839 257.513 105.82C257.4 105.745 257.277 105.613 257.145 105.424C257.013 105.235 256.947 105.084 256.947 104.971C256.947 104.65 257.117 104.357 257.457 104.093C257.815 103.81 258.259 103.555 258.788 103.328C259.316 103.102 259.911 102.903 260.572 102.733C261.251 102.564 261.912 102.412 262.554 102.28C263.215 102.148 263.819 102.054 264.367 101.997C264.933 101.94 265.367 101.912 265.669 101.912C265.896 101.912 266.104 101.988 266.293 102.139C266.5 102.29 266.604 102.507 266.604 102.79C266.604 103.017 266.538 103.187 266.406 103.3C266.293 103.394 266.141 103.46 265.953 103.498C265.783 103.517 265.603 103.536 265.415 103.555C265.245 103.555 265.084 103.564 264.933 103.583C264.631 103.64 264.244 103.715 263.772 103.81C263.319 103.904 262.866 103.998 262.413 104.093C261.96 104.187 261.582 104.263 261.28 104.319L260.798 104.433V104.744C261.157 104.744 261.61 104.754 262.158 104.773C262.705 104.791 263.291 104.839 263.914 104.914C264.537 104.99 265.15 105.112 265.754 105.282C266.377 105.433 266.934 105.65 267.425 105.934C267.916 106.198 268.313 106.538 268.615 106.953C268.936 107.35 269.096 107.841 269.096 108.426C269.096 109.219 268.879 109.889 268.445 110.437C268.011 110.984 267.463 111.428 266.802 111.768C266.141 112.107 265.424 112.353 264.65 112.504C263.876 112.655 263.158 112.731 262.498 112.731C262.233 112.731 261.95 112.712 261.648 112.674C261.346 112.617 261.063 112.523 260.798 112.391C260.553 112.259 260.345 112.079 260.175 111.853C260.024 111.626 259.949 111.333 259.949 110.975ZM277.044 105.311C276.515 105.311 276.025 105.358 275.571 105.452C275.137 105.528 274.656 105.565 274.127 105.565C273.919 105.565 273.787 105.49 273.731 105.339C273.674 105.169 273.646 105.009 273.646 104.857V104.716C273.683 104.64 273.74 104.546 273.816 104.433C273.91 104.319 274.004 104.216 274.099 104.121C274.193 104.008 274.269 103.913 274.325 103.838C274.401 103.762 274.448 103.725 274.467 103.725H277.072V99.4766C277.072 99.4011 277.101 99.3445 277.157 99.3067C277.214 99.2689 277.28 99.2406 277.356 99.2217C277.45 99.184 277.535 99.1651 277.61 99.1651C277.686 99.1462 277.743 99.1368 277.78 99.1368C278.082 99.1368 278.3 99.2501 278.432 99.4766C278.583 99.6843 278.677 99.9486 278.715 100.27C278.772 100.591 278.79 100.94 278.772 101.317C278.772 101.695 278.772 102.044 278.772 102.365C278.772 102.686 278.79 102.969 278.828 103.215C278.885 103.441 278.998 103.564 279.168 103.583C279.319 103.602 279.602 103.64 280.018 103.696C280.452 103.734 280.896 103.791 281.349 103.866C281.821 103.923 282.264 103.98 282.68 104.036C283.095 104.093 283.397 104.131 283.586 104.149C283.624 104.149 283.69 104.168 283.784 104.206C283.898 104.225 284.011 104.244 284.124 104.263C284.256 104.282 284.37 104.31 284.464 104.348C284.558 104.385 284.624 104.414 284.662 104.433C284.7 104.433 284.757 104.47 284.832 104.546C284.908 104.621 284.945 104.678 284.945 104.716C284.945 104.848 284.908 104.971 284.832 105.084C284.757 105.197 284.662 105.292 284.549 105.367C284.436 105.424 284.313 105.471 284.181 105.509C284.067 105.528 283.954 105.537 283.841 105.537C283.803 105.537 283.699 105.528 283.529 105.509C283.359 105.471 283.18 105.433 282.991 105.396C282.821 105.358 282.651 105.329 282.482 105.311C282.33 105.273 282.236 105.254 282.198 105.254H281.915C281.745 105.254 281.566 105.254 281.377 105.254C281.188 105.254 280.999 105.254 280.811 105.254H280.046C279.914 105.254 279.782 105.254 279.65 105.254C279.517 105.254 279.404 105.254 279.31 105.254H279.168L278.885 105.537C278.885 105.556 278.885 105.622 278.885 105.735C278.885 105.849 278.875 105.981 278.857 106.132C278.838 106.283 278.819 106.443 278.8 106.613C278.8 106.764 278.8 106.887 278.8 106.982C278.8 108.001 278.904 108.803 279.111 109.389C279.319 109.974 279.64 110.418 280.074 110.72C280.527 111.003 281.094 111.182 281.774 111.258C282.472 111.315 283.322 111.343 284.322 111.343C284.436 111.343 284.587 111.343 284.775 111.343C284.964 111.343 285.153 111.343 285.342 111.343C285.531 111.343 285.691 111.343 285.823 111.343C285.955 111.324 286.031 111.315 286.05 111.315C286.069 111.315 286.116 111.305 286.191 111.286C286.267 111.248 286.352 111.22 286.446 111.201C286.56 111.163 286.645 111.126 286.701 111.088C286.777 111.05 286.833 111.031 286.871 111.031C286.947 111.031 287.003 111.069 287.041 111.145C287.098 111.201 287.136 111.277 287.154 111.371C287.173 111.466 287.183 111.551 287.183 111.626V111.824C287.183 112.126 287.117 112.343 286.984 112.476C286.852 112.608 286.541 112.683 286.05 112.702H285.568C285.342 112.702 285.106 112.702 284.86 112.702C284.634 112.721 284.398 112.731 284.152 112.731H283.728C282.651 112.731 281.736 112.693 280.981 112.617C280.225 112.523 279.602 112.381 279.111 112.192C278.621 111.985 278.233 111.711 277.95 111.371C277.667 111.031 277.459 110.588 277.327 110.04C277.214 109.493 277.138 108.832 277.101 108.058C277.063 107.284 277.044 106.368 277.044 105.311Z" fill="#F44336"/>
</svg>
