<svg width="647" height="140" viewBox="0 0 647 140" fill="none" xmlns="http://www.w3.org/2000/svg">
<path d="M12.6953 35.5391C17.3828 35.5391 20.7109 38.3516 22.6797 43.9766C22.9609 44.5391 23.1016 45.3594 23.1016 46.4375C23.1016 47.6094 22.375 48.2656 20.9219 48.4062C19.6562 48.4062 18.8594 46.8594 18.5312 43.7656C16.9375 41.0938 15.1562 39.7578 13.1875 39.7578H12.2031C9.34375 39.7578 7.65625 42.5703 7.14062 48.1953V48.4062C7.14062 55.1562 11.4297 65.3516 20.0078 78.9922C22.6797 84.1953 24.0156 88.5547 24.0156 92.0703C24.0156 96.8516 21.5781 100.555 16.7031 103.18L14.2422 103.602C9.92969 103.602 5.80469 100.648 1.86719 94.7422C1.11719 93.4297 0.742188 92.0234 0.742188 90.5234C0.742188 88.1328 1.5625 86.7969 3.20312 86.5156H3.83594C4.86719 87.2188 5.38281 87.875 5.38281 88.4844L4.96094 90.5234V90.6641C4.96094 93.7109 7.46875 96.5234 12.4844 99.1016L13.8203 99.3828H14.4531C16.8906 99.3828 18.6719 97.2969 19.7969 93.125V92.2812C19.7969 87.2656 16.5391 79.8828 10.0234 70.1328C5.33594 60.8984 2.99219 53.6562 2.99219 48.4062C2.99219 42.5 5.26563 38.375 9.8125 36.0312L12.6953 35.5391ZM37.7969 34.1328H41.3125C45.9531 34.1328 49.0703 34.9531 50.6641 36.5938L51.0859 37.9297V38.1406C51.0859 39.3125 50.3594 39.9688 48.9062 40.1094C47.5 38.9375 44.6875 38.3516 40.4688 38.3516H39.7656V38.6328C39.7656 47.3047 39.8594 59.3281 40.0469 74.7031C40.2812 90.0781 41.0078 98.5859 42.2266 100.227C41.7578 101.539 40.9609 102.195 39.8359 102.195C37.8672 104.305 36.6719 96.2422 36.25 78.0078C35.8281 59.7734 35.6172 46.6484 35.6172 38.6328V38.3516L29.3594 38.7734C28.1875 38.2578 27.6016 37.5312 27.6016 36.5938C27.6016 34.9531 31 34.1328 37.7969 34.1328ZM75.1328 35.6094C75.8359 35.6094 76.5156 36.2891 77.1719 37.6484L76.9609 38.7031C81.0391 65.6562 83.8984 86.1875 85.5391 100.297C85.0703 101.609 84.3438 102.266 83.3594 102.266C81.7188 102.266 80.7344 98.75 80.4062 91.7188L79.6328 86.1641L75.7656 86.375C73.3281 86.375 69.6484 86.0703 64.7266 85.4609C61.2578 97.3203 58.8906 103.25 57.625 103.25H57.4844C55.9844 102.828 55.2344 102.078 55.2344 101C59.0312 91.7188 63.1562 75.8281 67.6094 53.3281C69.5312 46.3906 71.2891 40.7891 72.8828 36.5234C73.5391 35.9141 74.2891 35.6094 75.1328 35.6094ZM65.8516 81.2422C68.4297 81.8516 71.1484 82.1562 74.0078 82.1562H77.8047C78.3203 82.1562 78.7656 81.9453 79.1406 81.5234L74.0078 47.3516H73.8672C72.9297 48.8047 71.5703 53.9141 69.7891 62.6797L65.8516 81.2422ZM104.102 33.5C108.32 33.875 110.852 37.7188 111.695 45.0312V47.9844C111.133 53.8438 108.18 59.7266 102.836 65.6328C103.867 67.8359 106 74.9141 109.234 86.8672L115.141 100.367C114.531 101.633 113.734 102.195 112.75 102.055C111.484 102.008 109.516 98.375 106.844 91.1562C105.016 87.5469 103 80.8906 100.797 71.1875C100.234 69.5 99.7891 68.6328 99.4609 68.5859L94.75 71.0469C94.8438 81.3125 95.2656 90.9922 96.0156 100.086C95.9219 100.836 95.3359 101.516 94.2578 102.125L93.5547 102.055C92.2422 101.961 91.5859 100.508 91.5859 97.6953C90.3203 72.0547 90.1562 54.0781 91.0938 43.7656C90.1562 42.9219 89.7344 42.0781 89.8281 41.2344C89.875 40.9062 90.3906 40.2734 91.375 39.3359C91.5156 37.4141 92.3359 36.5469 93.8359 36.7344L94.8906 37.2266C98.8281 34.5078 101.898 33.2656 104.102 33.5ZM95.3125 42.1484C94.7969 52.4141 94.6328 60.4062 94.8203 66.125L95.4531 66.1953C100.047 64.0391 103.867 58.9766 106.914 51.0078L107.406 47.9844L107.477 47.3516C107.898 43.0859 106.938 39.875 104.594 37.7188L103.469 37.6484C101.875 37.5078 99.1562 39.0078 95.3125 42.1484ZM128.711 34.1328H132.227C136.867 34.1328 139.984 34.9531 141.578 36.5938L142 37.9297V38.1406C142 39.3125 141.273 39.9688 139.82 40.1094C138.414 38.9375 135.602 38.3516 131.383 38.3516H130.68V38.6328C130.68 47.3047 130.773 59.3281 130.961 74.7031C131.195 90.0781 131.922 98.5859 133.141 100.227C132.672 101.539 131.875 102.195 130.75 102.195C128.781 104.305 127.586 96.2422 127.164 78.0078C126.742 59.7734 126.531 46.6484 126.531 38.6328V38.3516L120.273 38.7734C119.102 38.2578 118.516 37.5312 118.516 36.5938C118.516 34.9531 121.914 34.1328 128.711 34.1328ZM176.453 35.5391C181.141 35.5391 184.469 38.3516 186.438 43.9766C186.719 44.5391 186.859 45.3594 186.859 46.4375C186.859 47.6094 186.133 48.2656 184.68 48.4062C183.414 48.4062 182.617 46.8594 182.289 43.7656C180.695 41.0938 178.914 39.7578 176.945 39.7578H175.961C173.102 39.7578 171.414 42.5703 170.898 48.1953V48.4062C170.898 55.1562 175.188 65.3516 183.766 78.9922C186.438 84.1953 187.773 88.5547 187.773 92.0703C187.773 96.8516 185.336 100.555 180.461 103.18L178 103.602C173.688 103.602 169.562 100.648 165.625 94.7422C164.875 93.4297 164.5 92.0234 164.5 90.5234C164.5 88.1328 165.32 86.7969 166.961 86.5156H167.594C168.625 87.2188 169.141 87.875 169.141 88.4844L168.719 90.5234V90.6641C168.719 93.7109 171.227 96.5234 176.242 99.1016L177.578 99.3828H178.211C180.648 99.3828 182.43 97.2969 183.555 93.125V92.2812C183.555 87.2656 180.297 79.8828 173.781 70.1328C169.094 60.8984 166.75 53.6562 166.75 48.4062C166.75 42.5 169.023 38.375 173.57 36.0312L176.453 35.5391ZM194.383 32.9375C195.414 32.9375 196.023 33.7578 196.211 35.3984V39.3359C196.211 48.8516 196.141 61.5078 196 77.3047C197.734 75.5703 199.352 74.7031 200.852 74.7031C204.648 74.7031 207.109 78.8281 208.234 87.0781C208.375 93.2188 208.727 98.5391 209.289 103.039C209.289 103.836 208.539 104.562 207.039 105.219C205.445 104.422 204.648 103.555 204.648 102.617L204.93 102.406V102.125C204.227 87.9688 203.477 80.8906 202.68 80.8906C202.117 79.7656 201.602 79.1094 201.133 78.9219H200.43C198.086 80.9844 196.914 83.4922 196.914 86.4453L197.055 101.562C196.492 102.922 195.766 103.602 194.875 103.602C193.328 103.602 192.344 101.445 191.922 97.1328C192.25 94.2734 192.414 91.8125 192.414 89.75V89.5391L192.273 89.3281L192.414 89.1172V87.3594L192.836 55.2266C192.273 49.9766 191.992 44.8203 191.992 39.7578V35.5391C192.086 33.8047 192.883 32.9375 194.383 32.9375ZM220.891 76.7422C224.922 78.1953 227.055 82.6484 227.289 90.1016V90.5234C227.102 96.7578 225.484 100.578 222.438 101.984L220.469 102.266C215.453 101.047 212.945 97.2734 212.945 90.9453V90.7344C212.945 83.8906 215.148 79.3203 219.555 77.0234L220.891 76.7422ZM217.094 90.1016V91.6484C217.609 96.0547 218.969 98.2578 221.172 98.2578C222.438 96.8516 223.07 94.1328 223.07 90.1016V89.6797C222.836 84.6641 222.039 81.9219 220.68 81.4531C218.289 82.5312 217.094 85.4141 217.094 90.1016ZM232.773 73.5078C234.367 73.5078 235.328 75.8281 235.656 80.4688C237.344 86.4219 238.328 89.3984 238.609 89.3984H238.82C239.242 83.6797 239.969 80.8203 241 80.8203H241.914C243.227 80.8203 245.43 83.6797 248.523 89.3984H248.734V89.1875C249.156 78.5469 250.422 73.2266 252.531 73.2266H252.953C254.312 73.5078 254.992 74.0938 254.992 74.9844C253.633 78.875 252.953 83.375 252.953 88.4844L253.234 99.1016C252.859 100.461 252.086 101.141 250.914 101.141C249.555 101.141 247.047 96.9219 243.391 88.4844H242.969C242.219 98.0938 240.766 102.898 238.609 102.898C237.156 102.898 236.266 100.531 235.938 95.7969C233.359 87.125 231.648 80.4219 230.805 75.6875C230.805 74.7031 231.461 73.9766 232.773 73.5078ZM262.234 65.2812C263.453 65.2812 264.203 66.0781 264.484 67.6719C264.484 68.4219 263.969 69.1484 262.938 69.8516H262.234C260.922 69.8516 260.266 69.0547 260.266 67.4609C260.641 66.0078 261.297 65.2812 262.234 65.2812ZM262.727 74.7734C264.32 75.0078 264.766 77.375 264.062 81.875C263.5 85.5781 263.406 91.7891 263.781 100.508C263.078 101.867 262.164 102.453 261.039 102.266C259.727 102.078 259.188 99.7578 259.422 95.3047C259.328 87.5234 259.727 81.0078 260.617 75.7578C260.711 75.0547 261.414 74.7266 262.727 74.7734ZM281.43 76.1094C286.164 76.4844 288.086 82.1797 287.195 93.1953L286.633 99.4531C286.352 101.141 285.531 101.938 284.172 101.844C282.906 101.75 282.344 100.906 282.484 99.3125L282.977 92.4922C283.633 84.4766 282.93 80.3984 280.867 80.2578C278.664 80.0703 277.07 84.2422 276.086 92.7734L276.367 100.367C276.273 101.352 275.477 101.867 273.977 101.914C272.242 101.773 271.586 99.2891 272.008 94.4609L270.32 78.3594C270.414 77.2812 271.281 76.6953 272.922 76.6016C273.906 76.6484 274.492 77.7031 274.68 79.7656L274.961 79.8359C277.07 77.2109 279.227 75.9688 281.43 76.1094ZM306.18 75.7578C307.961 75.7578 308.852 78.2422 308.852 83.2109C309.133 85.9297 309.273 92.1406 309.273 101.844C309.273 113.797 308.172 124.508 305.969 133.977C304.094 137.539 301.562 139.32 298.375 139.32C294.109 139.32 289.469 136.789 284.453 131.727L284.031 130.672C284.359 129.172 285.109 128.422 286.281 128.422C286.703 128.422 287.875 129.383 289.797 131.305C293.219 133.836 295.867 135.102 297.742 135.102H299.078C301.984 135.102 303.672 129.266 304.141 117.594C304.797 112.297 305.125 106.672 305.125 100.719V98.2578C302.922 99.3359 301.211 99.875 299.992 99.875C296.148 99.875 293.43 97.5781 291.836 92.9844C291.18 91.2969 290.852 89.5156 290.852 87.6406C290.852 82.4375 293.008 78.7812 297.32 76.6719L300.273 76.3906C301.352 76.3906 302.43 76.7422 303.508 77.4453H304C304.891 76.3203 305.617 75.7578 306.18 75.7578ZM297.953 80.5391C296.078 82.1797 295.141 84.6875 295.141 88.0625C295.141 92.375 296.547 94.9062 299.359 95.6562H300.273C302.852 95.6562 304.141 93.2891 304.141 88.5547C303.766 83.3984 302.523 80.8203 300.414 80.8203L297.953 80.5391ZM354.766 35.1172C355.469 35.1172 356.125 35.7734 356.734 37.0859C354.062 47.9609 352.188 59.3984 351.109 71.3984C350.031 83.3984 348.508 93.8281 346.539 102.688L345.203 103.602C343.562 103.086 342.742 102.406 342.742 101.562L346.891 73.9297C343.938 70.2734 341.664 66.1953 340.07 61.6953C338.055 56.1641 334.305 48.9922 328.82 40.1797L328.188 38.4922C328.188 37.4141 328.984 36.7344 330.578 36.4531C331.375 36.5938 332.57 38.3047 334.164 41.5859C337.352 45.8516 341.406 53.8203 346.328 65.4922L347.102 67.3906C350.055 43.625 352.609 32.8672 354.766 35.1172ZM365.734 76.7422C369.766 78.1953 371.898 82.6484 372.133 90.1016V90.5234C371.945 96.7578 370.328 100.578 367.281 101.984L365.312 102.266C360.297 101.047 357.789 97.2734 357.789 90.9453V90.7344C357.789 83.8906 359.992 79.3203 364.398 77.0234L365.734 76.7422ZM361.938 90.1016V91.6484C362.453 96.0547 363.812 98.2578 366.016 98.2578C367.281 96.8516 367.914 94.1328 367.914 90.1016V89.6797C367.68 84.6641 366.883 81.9219 365.523 81.4531C363.133 82.5312 361.938 85.4141 361.938 90.1016ZM390.273 77.4453C391.773 77.4453 392.523 79.0859 392.523 82.3672C392.523 86.1172 392.781 90.6641 393.297 96.0078C394.797 96.6641 395.547 97.4609 395.547 98.3984V98.6797C395.547 99.8516 394.75 100.578 393.156 100.859C392.125 100.859 391.234 99.875 390.484 97.9062C388.516 100.484 386.594 101.773 384.719 101.773C380.547 101.633 377.875 99.5469 376.703 95.5156C376.281 91.0156 376.07 86.2344 376.07 81.1719V79.8359C376.07 78.1953 376.82 77.375 378.32 77.375C379.398 77.375 380.055 78.2656 380.289 80.0469V81.1719C379.352 92.3281 380.828 97.6484 384.719 97.1328C387.297 95.3984 388.633 93.125 388.727 90.3125V88.3438L387.883 81.9453V81.2422C387.883 78.7109 388.68 77.4453 390.273 77.4453ZM398.992 72.7344C400.258 72.7344 401.219 74.2578 401.875 77.3047H402.086C403.867 75.1953 405.789 74.1406 407.852 74.1406C411.227 74.75 412.914 75.8047 412.914 77.3047C412.492 78.6172 411.766 79.2734 410.734 79.2734L408.062 78.4297H407.359C404.594 78.9453 403.211 84.6406 403.211 95.5156V98.8203C402.93 100.273 402.273 101 401.242 101C399.742 101 398.992 100.109 398.992 98.3281V90.1719C398.992 84.1719 398.242 78.9219 396.742 74.4219C397.117 73.2969 397.867 72.7344 398.992 72.7344ZM453.597 3.71777C460.563 3.71777 465.509 7.89746 468.435 16.2568C468.853 17.0928 469.062 18.3118 469.062 19.9141C469.062 21.6556 467.982 22.6309 465.822 22.8398C463.941 22.8398 462.757 20.541 462.27 15.9434C459.901 11.9727 457.254 9.9873 454.328 9.9873H452.865C448.616 9.9873 446.108 14.167 445.342 22.5264V22.8398C445.342 32.8711 451.716 48.0225 464.464 68.2939C468.435 76.0264 470.42 82.5049 470.42 87.7295C470.42 94.835 466.798 100.338 459.553 104.239L455.896 104.866C449.487 104.866 443.356 100.478 437.505 91.7002C436.39 89.7497 435.833 87.6598 435.833 85.4307C435.833 81.8779 437.052 79.8926 439.49 79.4746H440.431C441.963 80.5195 442.729 81.4948 442.729 82.4004L442.103 85.4307V85.6396C442.103 90.1676 445.829 94.3473 453.283 98.1787L455.269 98.5967H456.209C459.831 98.5967 462.479 95.4967 464.15 89.2969V88.043C464.15 80.5892 459.309 69.6175 449.626 55.1279C442.66 41.4046 439.177 30.6419 439.177 22.8398C439.177 14.0625 442.555 7.93229 449.312 4.44922L453.597 3.71777ZM490.9 1.62793H496.125C503.021 1.62793 507.654 2.84701 510.022 5.28516L510.649 7.27051V7.58398C510.649 9.32552 509.57 10.3008 507.41 10.5098C505.32 8.76823 501.141 7.89746 494.871 7.89746H493.826V8.31543C493.826 21.2028 493.965 39.071 494.244 61.9199C494.592 84.7689 495.672 97.4124 497.483 99.8506C496.787 101.801 495.603 102.776 493.931 102.776C491.005 105.911 489.229 93.9294 488.602 66.8311C487.975 39.7327 487.661 20.2275 487.661 8.31543V7.89746L478.361 8.52441C476.62 7.75814 475.749 6.67839 475.749 5.28516C475.749 2.84701 480.799 1.62793 490.9 1.62793ZM546.386 3.82227C547.431 3.82227 548.441 4.83236 549.416 6.85254L549.103 8.41992C555.163 48.4753 559.412 78.987 561.851 99.9551C561.154 101.906 560.074 102.881 558.611 102.881C556.173 102.881 554.71 97.6562 554.223 87.207L553.073 78.9521L547.326 79.2656C543.704 79.2656 538.235 78.8128 530.921 77.9072C525.766 95.5316 522.248 104.344 520.367 104.344H520.158C517.929 103.717 516.814 102.602 516.814 101C522.457 87.207 528.587 63.5918 535.205 30.1543C538.061 19.8444 540.674 11.5199 543.042 5.18066C544.017 4.27507 545.132 3.82227 546.386 3.82227ZM532.593 71.6377C536.424 72.5433 540.465 72.9961 544.714 72.9961H550.356C551.123 72.9961 551.785 72.6826 552.342 72.0557L544.714 21.2725H544.505C543.112 23.432 541.091 31.0251 538.444 44.0518L532.593 71.6377ZM589.437 0.6875C595.706 1.24479 599.468 6.95703 600.722 17.8242V22.2129C599.886 30.9206 595.497 39.6631 587.556 48.4404C589.088 51.7145 592.258 62.2334 597.064 79.9971L605.842 100.06C604.936 101.94 603.752 102.776 602.289 102.567C600.408 102.498 597.482 97.099 593.512 86.3711C590.795 81.0072 587.799 71.1152 584.525 56.6953C583.689 54.1875 583.028 52.8988 582.54 52.8291L575.539 56.4863C575.678 71.7422 576.305 86.1273 577.42 99.6416C577.281 100.756 576.41 101.766 574.808 102.672L573.763 102.567C571.812 102.428 570.837 100.269 570.837 96.0889C568.956 57.984 568.712 31.2689 570.105 15.9434C568.712 14.6895 568.085 13.4355 568.225 12.1816C568.294 11.694 569.061 10.7536 570.523 9.36035C570.732 6.50423 571.951 5.21549 574.181 5.49414L575.748 6.22559C581.6 2.18522 586.162 0.339193 589.437 0.6875ZM576.375 13.54C575.609 28.7959 575.365 40.6732 575.644 49.1719L576.584 49.2764C583.411 46.0719 589.088 38.5485 593.616 26.7061L594.348 22.2129L594.452 21.2725C595.079 14.9333 593.651 10.1615 590.168 6.95703L588.496 6.85254C586.128 6.64355 582.087 8.87272 576.375 13.54ZM630.084 3.71777C637.05 3.71777 641.996 7.89746 644.922 16.2568C645.34 17.0928 645.549 18.3118 645.549 19.9141C645.549 21.6556 644.469 22.6309 642.31 22.8398C640.429 22.8398 639.244 20.541 638.757 15.9434C636.388 11.9727 633.741 9.9873 630.815 9.9873H629.353C625.103 9.9873 622.595 14.167 621.829 22.5264V22.8398C621.829 32.8711 628.203 48.0225 640.951 68.2939C644.922 76.0264 646.907 82.5049 646.907 87.7295C646.907 94.835 643.285 100.338 636.04 104.239L632.383 104.866C625.974 104.866 619.844 100.478 613.992 91.7002C612.878 89.7497 612.32 87.6598 612.32 85.4307C612.32 81.8779 613.539 79.8926 615.978 79.4746H616.918C618.451 80.5195 619.217 81.4948 619.217 82.4004L618.59 85.4307V85.6396C618.59 90.1676 622.317 94.3473 629.771 98.1787L631.756 98.5967H632.696C636.319 98.5967 638.966 95.4967 640.638 89.2969V88.043C640.638 80.5892 635.796 69.6175 626.113 55.1279C619.147 41.4046 615.664 30.6419 615.664 22.8398C615.664 14.0625 619.043 7.93229 625.8 4.44922L630.084 3.71777Z" fill="#061EF2"/>
</svg>
