<svg width="763" height="83" viewBox="0 0 763 83" fill="none" xmlns="http://www.w3.org/2000/svg">
<path d="M23.835 1.29688C24.6943 1.58333 25.124 2.20996 25.124 3.17676L24.4795 23.4795L25.4463 43.084C25.4463 49.5293 24.766 52.752 23.4053 52.752H23.083C21.3285 52.752 18.7324 47.6852 15.2949 37.5518C15.2949 36.9788 15.1338 36.6208 14.8115 36.4775C12.7347 43.1377 10.64 48.4014 8.52734 52.2686L7.56055 52.376C6.45052 52.376 5.77018 50.9079 5.51953 47.9717C2.01042 28.2419 0.255859 13.7578 0.255859 4.51953C0.255859 3.26628 0.828776 2.63965 1.97461 2.63965C2.86979 2.63965 3.389 3.3916 3.53223 4.89551C3.53223 14.0264 5.10775 27.3109 8.25879 44.749H8.36621C9.51204 42.9587 11.1413 38.0531 13.2539 30.0322C13.2539 28.2419 13.8805 27.3467 15.1338 27.3467C16.1722 27.3467 16.7988 28.5462 17.0137 30.9453C17.9805 36.3164 19.6097 41.2757 21.9014 45.8232L22.1162 45.9844L22.2773 45.8232V43.084L21.2568 22.9961L21.9014 2.63965C21.9014 1.85189 22.5459 1.4043 23.835 1.29688ZM43.5598 30.4082C44.5266 30.4082 45.2606 31.5719 45.7619 33.8994H45.923C47.2837 32.2881 48.7518 31.4824 50.3273 31.4824C52.9055 31.9479 54.1945 32.7536 54.1945 33.8994C53.8723 34.902 53.3173 35.4033 52.5295 35.4033L50.4885 34.7588H49.9514C47.8387 35.1527 46.7824 39.5033 46.7824 47.8105V50.335C46.5676 51.445 46.0663 52 45.2785 52C44.1327 52 43.5598 51.3197 43.5598 49.959V43.7285C43.5598 39.1452 42.9868 35.1348 41.841 31.6973C42.1275 30.8379 42.7004 30.4082 43.5598 30.4082ZM73.8119 24.7148C74.7429 24.7148 75.3158 25.3236 75.5307 26.541C75.5307 27.1139 75.1368 27.6689 74.349 28.2061H73.8119C72.8093 28.2061 72.308 27.5973 72.308 26.3799C72.5945 25.2699 73.0958 24.7148 73.8119 24.7148ZM74.1879 31.9658C75.4053 32.1449 75.7455 33.9531 75.2084 37.3906C74.7787 40.2194 74.7071 44.9639 74.9936 51.624C74.4564 52.6624 73.7582 53.11 72.8988 52.9668C71.8962 52.8236 71.4844 51.0511 71.6635 47.6494C71.5919 41.7054 71.8962 36.7282 72.5766 32.7178C72.6482 32.1807 73.1853 31.93 74.1879 31.9658ZM98.5318 5.16406C99.6777 5.16406 100.179 8.61947 100.036 15.5303C99.9283 22.4053 99.8746 27.2751 99.8746 30.1396H99.982L103.205 29.6562C104.243 29.7995 104.762 30.3187 104.762 31.2139C104.762 32.4313 103.634 33.04 101.379 33.04L99.982 33.5234L100.465 51.5166C100.322 52.734 99.7672 53.3428 98.8004 53.3428C97.6546 53.3428 97.0816 52.5013 97.0816 50.8184V46.5752L96.9742 34.5977L96.7594 34.0605L94.3961 34.2217C93.3935 34.0068 92.8922 33.4518 92.8922 32.5566C92.8922 31.4466 94.1275 30.8916 96.5982 30.8916V30.6768C96.5982 26.0934 96.6699 18.0905 96.8131 6.66797C96.8131 5.77279 97.386 5.27148 98.5318 5.16406ZM124.756 24.7148C125.687 24.7148 126.26 25.3236 126.474 26.541C126.474 27.1139 126.081 27.6689 125.293 28.2061H124.756C123.753 28.2061 123.252 27.5973 123.252 26.3799C123.538 25.2699 124.04 24.7148 124.756 24.7148ZM125.132 31.9658C126.349 32.1449 126.689 33.9531 126.152 37.3906C125.722 40.2194 125.651 44.9639 125.937 51.624C125.4 52.6624 124.702 53.11 123.843 52.9668C122.84 52.8236 122.428 51.0511 122.607 47.6494C122.536 41.7054 122.84 36.7282 123.52 32.7178C123.592 32.1807 124.129 31.93 125.132 31.9658ZM153.719 32.9863C157.335 33.2728 158.803 37.6234 158.123 46.0381L157.693 50.8184C157.479 52.1074 156.852 52.7161 155.813 52.6445C154.847 52.5729 154.417 51.9284 154.524 50.7109L154.9 45.501C155.402 39.3779 154.865 36.2627 153.289 36.1553C151.606 36.012 150.389 39.1989 149.637 45.7158L149.852 51.5166C149.78 52.2686 149.171 52.6624 148.025 52.6982C146.701 52.5908 146.199 50.693 146.521 47.0049L145.232 34.7051C145.304 33.8815 145.966 33.4339 147.22 33.3623C147.972 33.3981 148.419 34.2038 148.562 35.7793L148.777 35.833C150.389 33.8278 152.036 32.8789 153.719 32.9863ZM186.925 32.7178C188.286 32.7178 188.966 34.6156 188.966 38.4111C189.181 40.488 189.288 45.2324 189.288 52.6445C189.288 61.7754 188.447 69.9574 186.764 77.1904C185.332 79.9118 183.398 81.2725 180.963 81.2725C177.705 81.2725 174.16 79.3389 170.328 75.4717L170.006 74.666C170.257 73.5202 170.83 72.9473 171.725 72.9473C172.047 72.9473 172.942 73.6813 174.41 75.1494C177.024 77.083 179.047 78.0498 180.48 78.0498H181.5C183.72 78.0498 185.009 73.5918 185.367 64.6758C185.869 60.6296 186.119 56.3327 186.119 51.7852V49.9053C184.436 50.7288 183.129 51.1406 182.198 51.1406C179.262 51.1406 177.185 49.3861 175.968 45.877C175.467 44.5879 175.216 43.2272 175.216 41.7949C175.216 37.8203 176.863 35.0273 180.157 33.416L182.413 33.2012C183.237 33.2012 184.06 33.4697 184.884 34.0068H185.26C185.94 33.1475 186.495 32.7178 186.925 32.7178ZM180.641 36.3701C179.209 37.6234 178.492 39.5391 178.492 42.1172C178.492 45.4115 179.567 47.3451 181.715 47.918H182.413C184.383 47.918 185.367 46.1097 185.367 42.4932C185.081 38.5544 184.132 36.585 182.521 36.585L180.641 36.3701ZM243.079 1.56543H243.24C246.069 1.67285 247.483 2.06673 247.483 2.74707V3.82129C247.232 4.3584 246.785 4.73438 246.14 4.94922L243.777 4.78809H242.595V4.94922C243.097 33.7025 243.884 48.0791 244.959 48.0791L250.706 47.2734C251.493 47.6315 251.887 48.1328 251.887 48.7773V48.9385C251.887 50.0843 249.685 50.8363 245.281 51.1943C242.345 51.7314 240.089 52 238.513 52C237.726 51.6777 237.332 51.1585 237.332 50.4424C237.332 49.2249 238.674 48.6162 241.36 48.6162V48.4014C240.465 42.5648 239.802 28.1344 239.373 5.11035H239.158L234.27 5.96973C233.375 5.57585 232.927 4.96712 232.927 4.14355C232.927 3.10514 235.183 2.37109 239.695 1.94141C239.695 1.76237 240.823 1.63704 243.079 1.56543ZM279.132 6.29199C279.561 6.29199 280.027 6.61426 280.528 7.25879V11.2871C280.528 23.1751 281.495 36.0479 283.429 49.9053L284.556 53.4502C284.306 54.3454 283.751 54.793 282.891 54.793C281.781 54.793 280.994 53.4502 280.528 50.7646H280.152C278.827 51.9821 277.52 52.5908 276.231 52.5908C273.295 52.5908 271.111 50.693 269.679 46.8975C269.213 45.6442 268.98 44.1582 268.98 42.4395C268.98 38.3574 270.341 35.5286 273.062 33.9531L274.244 33.8457H274.405C275.479 33.8457 276.768 34.347 278.272 35.3496H278.487V35.1885C277.699 25.9502 277.305 18.3949 277.305 12.5225V8.92383C277.305 7.16927 277.914 6.29199 279.132 6.29199ZM272.203 42.2783V43.5137C272.203 46.1634 273.17 48.0791 275.103 49.2607L276.231 49.3682C277.95 49.3682 278.809 47.6852 278.809 44.3193V42.8154C278.809 39.7718 277.234 37.8561 274.083 37.0684C272.83 37.8203 272.203 39.557 272.203 42.2783ZM306 32.8252C308.005 32.8252 309.366 34.6335 310.082 38.25C309.151 42.2962 307.235 44.3193 304.335 44.3193H304.12V44.4805C304.693 47.7389 306.215 49.3682 308.686 49.3682C310.583 49.3682 312.123 47.7389 313.305 44.4805L314.486 43.9971C315.274 43.9971 315.775 44.6058 315.99 45.8232C315.99 48.0433 314.254 50.138 310.78 52.1074L308.202 52.5908C305.123 52.5908 302.813 50.3887 301.273 45.9844C300.844 44.2298 300.629 42.7796 300.629 41.6338V40.9355C300.629 37.2832 302.151 34.6335 305.194 32.9863L306 32.8252ZM304.013 39.5928V39.7002L305.194 40.9355C305.731 40.9355 306.233 40.2015 306.698 38.7334V37.874C306.519 36.764 306.286 36.209 306 36.209H305.678C305.141 36.209 304.586 37.3369 304.013 39.5928ZM341.301 34.0068L344.524 34.5439V34.3828C345.311 34.3828 345.92 35.0094 346.35 36.2627L346.189 39.6465V42.0098C346.189 45.4831 346.69 48.0791 347.693 49.7979C347.406 50.693 346.851 51.1406 346.028 51.1406C344.846 51.1406 343.987 49.7799 343.449 47.0586L343.342 46.1992H342.859C341.57 49.2428 339.743 51.266 337.38 52.2686L336.574 52.4834C333.495 51.624 331.955 49.3682 331.955 45.7158V45.3936C331.955 40.846 334.157 37.2295 338.562 34.5439L341.301 34.0068ZM335.178 46.4141C335.429 48.2044 336.001 49.0996 336.897 49.0996H337.058C338.311 49.0996 340.28 45.3219 342.966 37.7666V37.6055L341.408 37.2832H341.301C338.436 37.2832 336.395 39.7539 335.178 44.6953V46.4141ZM371.07 31.5898C372.932 31.5898 374.06 32.3776 374.454 33.9531C374.454 34.7051 373.952 35.1706 372.95 35.3496H372.466C372.001 35.0273 371.589 34.8662 371.231 34.8662H370.747C368.384 35.8688 367.203 37.3727 367.203 39.3779V39.8613C367.382 41.043 367.937 41.6338 368.868 41.6338H369.351L373.057 40.9355C374.883 41.1504 375.796 42.0456 375.796 43.6211C375.796 45.9486 374.382 48.4372 371.553 51.0869C370.228 52.0895 368.885 52.5908 367.525 52.5908C365.054 52.0537 363.819 51.0332 363.819 49.5293C364.177 48.6341 364.786 48.1865 365.645 48.1865L367.31 49.3682H368.169C370.783 48.3656 372.09 46.7363 372.09 44.4805L371.875 44.2656C370.98 44.5879 369.978 44.749 368.868 44.749C366.218 44.749 364.589 43.0303 363.98 39.5928C363.98 36.4775 365.717 33.9352 369.19 31.9658L371.07 31.5898ZM425.451 5.16406C426.597 5.16406 427.098 8.61947 426.955 15.5303C426.847 22.4053 426.794 27.2751 426.794 30.1396H426.901L430.124 29.6562C431.162 29.7995 431.681 30.3187 431.681 31.2139C431.681 32.4313 430.554 33.04 428.298 33.04L426.901 33.5234L427.385 51.5166C427.241 52.734 426.686 53.3428 425.72 53.3428C424.574 53.3428 424.001 52.5013 424.001 50.8184V46.5752L423.893 34.5977L423.679 34.0605L421.315 34.2217C420.313 34.0068 419.811 33.4518 419.811 32.5566C419.811 31.4466 421.047 30.8916 423.517 30.8916V30.6768C423.517 26.0934 423.589 18.0905 423.732 6.66797C423.732 5.77279 424.305 5.27148 425.451 5.16406ZM450.654 0.0078125C451.442 0.0078125 451.908 0.63444 452.051 1.8877V4.89551C452.051 12.1644 451.997 21.8324 451.89 33.8994C453.215 32.5745 454.45 31.9121 455.596 31.9121C458.496 31.9121 460.376 35.0632 461.235 41.3652C461.343 46.056 461.611 50.1201 462.041 53.5576C462.041 54.1663 461.468 54.7214 460.322 55.2227C459.105 54.6139 458.496 53.9515 458.496 53.2354L458.711 53.0742V52.8594C458.174 42.0456 457.601 36.6387 456.992 36.6387C456.562 35.7793 456.169 35.278 455.811 35.1348H455.273C453.483 36.7103 452.588 38.626 452.588 40.8818L452.695 52.4297C452.266 53.4681 451.711 53.9873 451.03 53.9873C449.849 53.9873 449.097 52.3402 448.774 49.0459C449.025 46.8617 449.15 44.9818 449.15 43.4062V43.2451L449.043 43.084L449.15 42.9229V41.5801L449.473 17.0342C449.043 13.0238 448.828 9.08496 448.828 5.21777V1.99512C448.9 0.670247 449.508 0.0078125 450.654 0.0078125ZM487.728 34.0068L490.95 34.5439V34.3828C491.738 34.3828 492.347 35.0094 492.777 36.2627L492.615 39.6465V42.0098C492.615 45.4831 493.117 48.0791 494.119 49.7979C493.833 50.693 493.278 51.1406 492.454 51.1406C491.273 51.1406 490.413 49.7799 489.876 47.0586L489.769 46.1992H489.285C487.996 49.2428 486.17 51.266 483.807 52.2686L483.001 52.4834C479.922 51.624 478.382 49.3682 478.382 45.7158V45.3936C478.382 40.846 480.584 37.2295 484.988 34.5439L487.728 34.0068ZM481.605 46.4141C481.855 48.2044 482.428 49.0996 483.323 49.0996H483.485C484.738 49.0996 486.707 45.3219 489.393 37.7666V37.6055L487.835 37.2832H487.728C484.863 37.2832 482.822 39.7539 481.605 44.6953V46.4141ZM515.563 5.16406C516.709 5.16406 517.21 8.61947 517.067 15.5303C516.959 22.4053 516.906 27.2751 516.906 30.1396H517.013L520.236 29.6562C521.274 29.7995 521.793 30.3187 521.793 31.2139C521.793 32.4313 520.665 33.04 518.41 33.04L517.013 33.5234L517.496 51.5166C517.353 52.734 516.798 53.3428 515.831 53.3428C514.686 53.3428 514.113 52.5013 514.113 50.8184V46.5752L514.005 34.5977L513.79 34.0605L511.427 34.2217C510.425 34.0068 509.923 33.4518 509.923 32.5566C509.923 31.4466 511.159 30.8916 513.629 30.8916V30.6768C513.629 26.0934 513.701 18.0905 513.844 6.66797C513.844 5.77279 514.417 5.27148 515.563 5.16406ZM575.315 1.56543H575.476C578.305 1.67285 579.72 2.06673 579.72 2.74707V3.82129C579.469 4.3584 579.021 4.73438 578.377 4.94922L576.013 4.78809H574.832V4.94922C575.333 33.7025 576.121 48.0791 577.195 48.0791L582.942 47.2734C583.73 47.6315 584.124 48.1328 584.124 48.7773V48.9385C584.124 50.0843 581.922 50.8363 577.517 51.1943C574.581 51.7314 572.325 52 570.75 52C569.962 51.6777 569.568 51.1585 569.568 50.4424C569.568 49.2249 570.911 48.6162 573.596 48.6162V48.4014C572.701 42.5648 572.039 28.1344 571.609 5.11035H571.394L566.507 5.96973C565.611 5.57585 565.164 4.96712 565.164 4.14355C565.164 3.10514 567.42 2.37109 571.931 1.94141C571.931 1.76237 573.059 1.63704 575.315 1.56543ZM610.724 32.9863C614.34 33.2728 615.808 37.6234 615.128 46.0381L614.698 50.8184C614.483 52.1074 613.857 52.7161 612.818 52.6445C611.852 52.5729 611.422 51.9284 611.529 50.7109L611.905 45.501C612.407 39.3779 611.869 36.2627 610.294 36.1553C608.611 36.012 607.394 39.1989 606.642 45.7158L606.856 51.5166C606.785 52.2686 606.176 52.6624 605.03 52.6982C603.705 52.5908 603.204 50.693 603.526 47.0049L602.237 34.7051C602.309 33.8815 602.971 33.4339 604.225 33.3623C604.977 33.3981 605.424 34.2038 605.567 35.7793L605.782 35.833C607.394 33.8278 609.041 32.8789 610.724 32.9863ZM639.902 31.5898C641.764 31.5898 642.891 32.3776 643.285 33.9531C643.285 34.7051 642.784 35.1706 641.781 35.3496H641.298C640.833 35.0273 640.421 34.8662 640.063 34.8662H639.579C637.216 35.8688 636.034 37.3727 636.034 39.3779V39.8613C636.213 41.043 636.768 41.6338 637.699 41.6338H638.183L641.889 40.9355C643.715 41.1504 644.628 42.0456 644.628 43.6211C644.628 45.9486 643.214 48.4372 640.385 51.0869C639.06 52.0895 637.717 52.5908 636.357 52.5908C633.886 52.0537 632.651 51.0332 632.651 49.5293C633.009 48.6341 633.617 48.1865 634.477 48.1865L636.142 49.3682H637.001C639.615 48.3656 640.922 46.7363 640.922 44.4805L640.707 44.2656C639.812 44.5879 638.809 44.749 637.699 44.749C635.05 44.749 633.42 43.0303 632.812 39.5928C632.812 36.4775 634.548 33.9352 638.022 31.9658L639.902 31.5898ZM669.563 32.127C673.179 32.127 676.259 35.0094 678.801 40.7744L679.553 44.3193C679.553 48.652 676.724 51.1943 671.067 51.9463H670.691C669.402 51.9463 668.238 51.6061 667.2 50.9258H666.662C667.2 65.75 667.468 75.7044 667.468 80.7891C667.146 82.0423 666.573 82.6689 665.749 82.6689C664.604 82.6689 664.031 81.7559 664.031 79.9297V79.2314C664.031 73.7171 663.834 64.1029 663.44 50.3887C662.974 44.3014 662.742 39.6286 662.742 36.3701V35.2422C662.742 33.416 663.297 32.5029 664.407 32.5029H665.159C665.803 32.8968 666.125 33.3981 666.125 34.0068C667.271 32.8968 668.113 32.3418 668.65 32.3418L669.563 32.127ZM667.522 41.1504C666.877 46.1992 667.826 48.7236 670.369 48.7236H671.228C674.128 48.7236 675.829 47.363 676.33 44.6416V44.1582C676.33 41.7591 675.077 39.2884 672.571 36.7461C671.532 35.8151 670.583 35.3496 669.724 35.3496C668.542 35.278 667.808 37.2116 667.522 41.1504ZM699.708 24.7148C700.639 24.7148 701.212 25.3236 701.426 26.541C701.426 27.1139 701.033 27.6689 700.245 28.2061H699.708C698.705 28.2061 698.204 27.5973 698.204 26.3799C698.49 25.2699 698.991 24.7148 699.708 24.7148ZM700.084 31.9658C701.301 32.1449 701.641 33.9531 701.104 37.3906C700.674 40.2194 700.603 44.9639 700.889 51.624C700.352 52.6624 699.654 53.11 698.795 52.9668C697.792 52.8236 697.38 51.0511 697.559 47.6494C697.488 41.7054 697.792 36.7282 698.472 32.7178C698.544 32.1807 699.081 31.93 700.084 31.9658ZM720.077 30.4082C721.044 30.4082 721.778 31.5719 722.279 33.8994H722.44C723.801 32.2881 725.269 31.4824 726.845 31.4824C729.423 31.9479 730.712 32.7536 730.712 33.8994C730.389 34.902 729.834 35.4033 729.047 35.4033L727.006 34.7588H726.469C724.356 35.1527 723.3 39.5033 723.3 47.8105V50.335C723.085 51.445 722.583 52 721.796 52C720.65 52 720.077 51.3197 720.077 49.959V43.7285C720.077 39.1452 719.504 35.1348 718.358 31.6973C718.645 30.8379 719.218 30.4082 720.077 30.4082ZM752.209 32.8252C754.214 32.8252 755.575 34.6335 756.291 38.25C755.36 42.2962 753.444 44.3193 750.544 44.3193H750.329V44.4805C750.902 47.7389 752.424 49.3682 754.895 49.3682C756.792 49.3682 758.332 47.7389 759.514 44.4805L760.695 43.9971C761.483 43.9971 761.984 44.6058 762.199 45.8232C762.199 48.0433 760.463 50.138 756.989 52.1074L754.411 52.5908C751.332 52.5908 749.022 50.3887 747.482 45.9844C747.053 44.2298 746.838 42.7796 746.838 41.6338V40.9355C746.838 37.2832 748.36 34.6335 751.403 32.9863L752.209 32.8252ZM750.222 39.5928V39.7002L751.403 40.9355C751.94 40.9355 752.442 40.2015 752.907 38.7334V37.874C752.728 36.764 752.495 36.209 752.209 36.209H751.887C751.35 36.209 750.795 37.3369 750.222 39.5928Z" fill="#B506F2"/>
</svg>
